<?xml version="1.0" encoding="utf-8"?>
<!-- Generator: Adobe Illustrator 23.0.2, SVG Export Plug-In . SVG Version: 6.00 Build 0)  -->
<svg version="1.1" xmlns="http://www.w3.org/2000/svg" xmlns:xlink="http://www.w3.org/1999/xlink" x="0px" y="0px"
	 viewBox="0 0 280 280" style="enable-background:new 0 0 280 280;" xml:space="preserve">
<style type="text/css">
	.st0{fill:url(#SVGID_1_);}
	.st1{fill:url(#SVGID_2_);}
</style>
<g id="Layer_1">
	<g>
		<g>
			<linearGradient id="SVGID_1_" gradientUnits="userSpaceOnUse" x1="48.9709" y1="140" x2="247.893" y2="140">
				<stop  offset="0" style="stop-color:#4CB6CB"/>
				<stop  offset="1" style="stop-color:#384055"/>
			</linearGradient>
			<path class="st0" d="M93.1,275.6c0-22.7,0-43.9,0-64.7c-5.4-1.1-10-1.7-14.4-3.1c-17.5-5.5-29.3-20.8-29.4-39.2
				c-0.3-36.7-0.6-73.3-0.1-110c0.4-31.8,27.7-57,59.1-54.1c9.4,0.9,19.1,4.9,27.5,9.5c28.2,15.4,55.8,31.8,83.6,47.8
				c3,1.7,6.1,3.4,9,5.3c26.8,17.6,25.5,56.5-2.6,72.6c-25.7,14.8-51.5,29.3-77.3,43.9c-5.9,3.4-11.7,7-17.8,10.2
				c-2.9,1.5-3.9,3.5-3.8,6.7c0.2,17,0,34,0.1,51c0,3.4-0.9,5.4-4,7.1C113.6,263.9,104.1,269.4,93.1,275.6z M127.1,156.6
				c2.5-1.3,4.3-2.1,6-3c24.7-14,49.5-28.1,74.2-42.2c8.7-4.9,8.7-12.1,0.1-17.1c-21.9-12.7-43.7-25.4-65.6-38.1
				c-8.6-5-14.6-1.4-14.6,8.6c0,28.5,0,57,0,85.5C127.1,152.1,127.1,153.9,127.1,156.6z M99.9,39.1c-10.5,3.1-16.8,10.7-16.8,20
				c-0.1,36-0.1,72-0.1,108c0,5.8,2.9,8.4,9.6,8.4c0.1-2.2,0.4-4.5,0.4-6.7c0-32,0-64-0.1-96C93,61.4,92.9,50.1,99.9,39.1z"/>
			<g>
				<linearGradient id="SVGID_2_" gradientUnits="userSpaceOnUse" x1="92.9476" y1="147.7874" x2="248.073" y2="147.7874">
					<stop  offset="0" style="stop-color:#4CB6CB"/>
					<stop  offset="1" style="stop-color:#384055"/>
				</linearGradient>
				<path class="st1" d="M93.9,275.6c-0.2-2.5-0.3-4-0.3-5.4c-0.2-29.3-0.6-58.6-0.7-87.9c0-39.1,0.2-78.3,0.4-117.4
					c0.1-22.2,11.5-37.8,31.8-43.3c10.5-2.9,20.6-1.9,30.2,3.7c23.7,13.8,47.5,27.4,71.1,41.3c28.3,16.5,29,56.2,0.8,73
					c-29.6,17.5-100,58.9-100,59c0,17.8-0.1,35.7,0.1,53.5c0,3.7-1.2,5.7-4.4,7.4C113.5,264.4,104.2,269.8,93.9,275.6z M127.2,108.6
					C127.2,108.6,127.1,108.6,127.2,108.6c0,4,0,8,0,12c0,11.5,0,23,0.1,34.5c0,1.3,11.5-3.5,15-5.5c21.9-12.6,43.8-25,65.8-37.4
					c7.9-4.5,8-12,0-16.7c-22.4-13.1-44.8-26-67.2-38.9c-7.5-4.3-13.6-0.6-13.7,8.1C127.1,79.3,127.2,93.9,127.2,108.6z"/>
			</g>
		</g>
	</g>
</g>
<g id="Layer_2">
</g>
</svg>
