<svg xmlns="http://www.w3.org/2000/svg" width="17.871" height="17.871" viewBox="0 0 17.871 17.871">
  <g id="noun_Album_2623244" transform="translate(-18.5 -18.5)">
    <path id="Path_54" data-name="Path 54" d="M24.635,23.5H23.5v.851H37.4a.284.284,0,0,1,.284.284v13.9h.851V23.5h-13.9Z" transform="translate(-3.582 -3.582)" fill="#358595"/>
    <path id="Path_55" data-name="Path 55" d="M28.5,19.351H42.4a.284.284,0,0,1,.284.284v13.9h.851V18.5H28.5Z" transform="translate(-7.163)" fill="#358595"/>
    <path id="Path_56" data-name="Path 56" d="M21.053,28.5H18.5V43.534H33.534V28.5H21.053Zm.86,10.418A3.152,3.152,0,0,1,23.73,38.3a5.674,5.674,0,0,1,.94.026V31.567c0-.008,0-.014,0-.022a.37.37,0,0,1,.029-.106.255.255,0,0,1,.109-.114.271.271,0,0,1,.052-.025c.007,0,.012-.008.02-.009l5.673-1.418a.231.231,0,0,0,.069-.008c.007,0,.013,0,.02,0a.268.268,0,0,1,.059.012.255.255,0,0,1,.161.126.271.271,0,0,1,.025.053c0,.007.007.012.009.019a.228.228,0,0,0,.009.069v8.51a.284.284,0,0,1-.083.2A7.593,7.593,0,0,1,28.137,40.7a1.526,1.526,0,0,1-.362.051.957.957,0,0,1-.306-.051c-.018-.006-.037-.009-.055-.016-.409-.169-.616-.612-.616-1.314a2.286,2.286,0,0,1,.79-1.868,3.882,3.882,0,0,1,2.756-.588V33.348l-2.21.552-2.9.724v5.452a.284.284,0,0,1-.083.2c-.083.083-.24.236-.445.42-.1.089-.209.185-.328.284s-.231.189-.356.284a4.7,4.7,0,0,1-1.562.851,1.526,1.526,0,0,1-.362.051.957.957,0,0,1-.306-.051c-.018-.006-.037-.009-.055-.016a1.017,1.017,0,0,1-.577-.835,2.464,2.464,0,0,1-.032-.284c0-.024,0-.05,0-.076s0-.078,0-.12a2.72,2.72,0,0,1,.213-1.106A2.03,2.03,0,0,1,21.913,38.918Z" transform="translate(0 -7.163)" fill="#358595"/>
    <path id="Path_57" data-name="Path 57" d="M50.331,60.529a1.726,1.726,0,0,0-.581,1.428c0,.31.046.7.266.79.516.213,1.865-.792,2.713-1.618V60.074a5.394,5.394,0,0,0-.64-.039A2.82,2.82,0,0,0,50.331,60.529Z" transform="translate(-22.385 -29.753)" fill="#358595"/>
    <path id="Path_58" data-name="Path 58" d="M47.356,37.844V35.592L42.25,36.868V39.12l3.676-.919Z" transform="translate(-17.013 -12.243)" fill="#358595"/>
    <path id="Path_59" data-name="Path 59" d="M29.8,67.436a.432.432,0,0,0,.215.311c.228.094.619-.05,1.056-.311.14-.084.286-.18.432-.284.126-.09.253-.185.379-.284a11.021,11.021,0,0,0,.845-.74V65.074a5.4,5.4,0,0,0-.64-.039,3.873,3.873,0,0,0-.976.117,2.046,2.046,0,0,0-.782.377,1.544,1.544,0,0,0-.536.941,2.5,2.5,0,0,0-.041.4c0,.03,0,.058,0,.088,0,.063,0,.129.008.2A1.559,1.559,0,0,0,29.8,67.436Z" transform="translate(-8.059 -33.334)" fill="#358595"/>
  </g>
</svg>
