<svg xmlns="http://www.w3.org/2000/svg" viewBox="1502.533 106 17.369 19.54"><defs><style>.a{fill:#384055;}</style></defs><g transform="translate(1476.533 -25.5)"><g transform="translate(26 131.5)"><g transform="translate(0 0)"><path class="a" d="M35.686,38.2a3.006,3.006,0,0,1-6,0H25a1,1,0,0,1-1-1v-1a2.005,2.005,0,0,1,2-2s0-4.008,0-4.008a6.682,6.682,0,0,1,4.342-6.259v-.088a2.338,2.338,0,0,1,4.676,0v.088a6.683,6.683,0,0,1,4.342,6.259v4.008a2.007,2.007,0,0,1,2,2v1a1,1,0,0,1-1,1Zm-1.34,0H31.022a1.67,1.67,0,0,0,3.324,0Zm5.686-1.336V36.2a.67.67,0,0,0-.669-.668,1.334,1.334,0,0,1-1.335-1.337V30.184a5.346,5.346,0,0,0-3.859-5.135l-.483-.139V23.837a1,1,0,0,0-2,0V24.91l-.483.139a5.345,5.345,0,0,0-3.859,5.135v4.008A1.337,1.337,0,0,1,26,35.528a.669.669,0,0,0-.669.668v.668Z" transform="translate(-24 -21.5)"/></g></g></g></svg>