<svg xmlns="http://www.w3.org/2000/svg" viewBox="1503.939 502.895 16.024 19.605"><defs><style>.a{fill:#384055;stroke:#384055;}</style></defs><g transform="translate(1487.165 493.917)"><g transform="translate(17.274 9.478)"><path class="a" d="M30.606,28.082a2.406,2.406,0,0,1-1.157-.328l-2.726-1.5a4.544,4.544,0,0,0-3.873,0l-2.726,1.5a2.407,2.407,0,0,1-1.157.328,1.577,1.577,0,0,1-1.246-.578,2.234,2.234,0,0,1-.447-1.434V12.41a2.935,2.935,0,0,1,2.932-2.932h9.161A2.935,2.935,0,0,1,32.3,12.41V26.07C32.3,27.274,31.618,28.082,30.606,28.082Zm-5.819-3.193a5.03,5.03,0,0,1,2.385.549l2.726,1.5a1.517,1.517,0,0,0,.708.213c.689,0,.763-.757.763-1.082V12.41a2,2,0,0,0-2-2H20.206a2,2,0,0,0-2,2V26.07a1.333,1.333,0,0,0,.237.846c.251.307.717.309,1.234.024l2.726-1.5A5.029,5.029,0,0,1,24.787,24.889Z" transform="translate(-17.274 -9.478)"/></g></g></svg>