<?xml version="1.0" encoding="utf-8"?>
<!-- Generator: Adobe Illustrator 23.0.2, SVG Export Plug-In . SVG Version: 6.00 Build 0)  -->
<svg version="1.1" id="Layer_1" xmlns="http://www.w3.org/2000/svg" xmlns:xlink="http://www.w3.org/1999/xlink" x="0px" y="0px"
	 viewBox="0 0 6.9 8.4" style="enable-background:new 0 0 6.9 8.4;" xml:space="preserve">
<style type="text/css">
	.st0{fill:#5E5E5E;stroke:#5E5E5E;stroke-width:0.5;}
</style>
<g id="noun_bookmark_255227" transform="translate(-17.024 -9.228)">
	<g id="Group_98" transform="translate(17.274 9.478)">
		<path id="Path_50" class="st0" d="M5.6,7.9c-0.2,0-0.3-0.1-0.5-0.1L4,7.1c-0.5-0.2-1.1-0.2-1.6,0L1.2,7.7C1.1,7.8,0.9,7.9,0.7,7.9
			c-0.2,0-0.4-0.1-0.5-0.2C0.1,7.5,0,7.2,0,7V1.2C0,0.6,0.6,0,1.2,0h3.9c0.7,0,1.2,0.6,1.2,1.2V7C6.4,7.5,6.1,7.9,5.6,7.9z M3.2,6.5
			c0.4,0,0.7,0.1,1,0.2l1.2,0.6c0.1,0.1,0.2,0.1,0.3,0.1C5.9,7.5,6,7.2,6,7V1.2c0-0.5-0.4-0.8-0.8-0.8H1.2c-0.5,0-0.8,0.4-0.8,0.8V7
			c0,0.1,0,0.3,0.1,0.4c0.1,0.1,0.3,0.1,0.5,0l1.2-0.6C2.5,6.6,2.8,6.5,3.2,6.5z"/>
	</g>
</g>
<rect x="0.6" y="0.9" class="st0" width="5.6" height="2.5"/>
<rect x="0.6" y="3.6" class="st0" width="5.6" height="2.5"/>
<rect x="0.6" y="4.5" class="st0" width="5.6" height="2.5"/>
<rect x="-0.1" y="5.6" transform="matrix(6.123234e-17 -1 1 6.123234e-17 -4.9777 7.5317)" class="st0" width="2.8" height="1.3"/>
<rect x="4.3" y="5.5" transform="matrix(6.123234e-17 -1 1 6.123234e-17 -0.4464 11.8089)" class="st0" width="2.8" height="1.3"/>
</svg>
