<svg xmlns="http://www.w3.org/2000/svg" viewBox="1263.921 25 12.158 12.3"><defs><style>.a{fill:#888;}</style></defs><g transform="translate(1262 23.15)"><path class="a" d="M13.917,2.078a.5.5,0,0,0-.706.031C11.5,3.978,9.727,5.784,8.01,7.534Q5.322,4.845,2.794,2.017a.5.5,0,0,0-.746.666Q4.592,5.53,7.311,8.25C5.7,9.887,4.064,11.567,2.465,13.312a.5.5,0,1,0,.736.676c1.591-1.734,3.226-3.409,4.826-5.041,1.558,1.537,3.144,3.043,4.764,4.495a.5.5,0,0,0,.668-.744c-1.61-1.443-3.186-2.94-4.734-4.467,1.723-1.755,3.5-3.566,5.222-5.447A.5.5,0,0,0,13.917,2.078Z"/></g></svg>