<svg xmlns="http://www.w3.org/2000/svg" viewBox="-484.442 1508 17.732 18.973"><defs><style>.a{fill:#5e5e5e;}</style></defs><g transform="translate(-514 1461.302)"><g transform="translate(29.558 46.698)"><g transform="translate(0 2.344)"><path class="a" d="M100.269,154.2h2.522c.055,0,.109.005.164.005-.147-.005.1.016.158.038a1.422,1.422,0,0,1,.142.044c-.011-.005-.115-.055-.027-.011s.147.082.224.12c.126.066.038.022.005,0a.837.837,0,0,1,.1.093c.044.044.18.229.1.1a2.089,2.089,0,0,1,.136.24c-.066-.137.005.044.022.1a.706.706,0,0,1,.022.1c-.038-.147-.005-.049-.005-.005v11.611c0,.038-.005.071-.005.109.005.087.038-.115-.005.027-.011.044-.109.289-.033.136-.038.071-.076.142-.12.213s.016-.016.027-.027a.838.838,0,0,1-.093.1c-.044.044-.224.186-.1.1-.082.055-.164.1-.246.147-.033.016-.136.044-.005.005l-.1.033a1.953,1.953,0,0,1-.257.06c.158-.022-.055-.005-.093-.005H91.634c-.4,0-.8.005-1.2,0-.016,0-.213-.005-.131,0,.1.005-.055-.011-.082-.016a.8.8,0,0,1-.109-.027,1.4,1.4,0,0,1-.142-.044c.142.044-.005,0-.038-.022a1.39,1.39,0,0,1-.213-.131c.131.087-.071-.071-.1-.1a.968.968,0,0,0-.071-.076c-.082-.093.06.1,0,0-.033-.055-.147-.3-.093-.142-.027-.076-.038-.164-.066-.235s0,.016.005.044c0-.049-.005-.1-.005-.142v-11.61c0-.016.011-.131,0-.033s.011-.038.016-.065a.576.576,0,0,0,.027-.1c.044-.2-.044.066.011-.027a1.615,1.615,0,0,1,.126-.207c-.087.131.055-.06.1-.1s.071-.066.1-.093c-.011.011-.1.071-.022.022a2.08,2.08,0,0,1,.284-.158c-.136.06.076-.016.12-.027s.273-.033.12-.027c.071-.005.142-.005.213-.005h2.331a.819.819,0,1,0,0-1.638c-.786,0-1.578-.011-2.369,0a2.652,2.652,0,0,0-2.691,2.609c-.005,1.583,0,3.166,0,4.749v5.939a4.014,4.014,0,0,0,.278,1.91,2.718,2.718,0,0,0,2.32,1.408c.12.005.24,0,.36,0h11.163a7.944,7.944,0,0,0,1.528-.066,2.64,2.64,0,0,0,1.982-1.8,3.057,3.057,0,0,0,.1-.862V155.149a2.538,2.538,0,0,0-.71-1.758c-.923-.961-2.238-.819-3.444-.819h-1.048a.828.828,0,0,0-.819.819.808.808,0,0,0,.8.808Z" transform="translate(-87.756 -152.565)"/></g><g transform="translate(8.032 0)"><path class="a" d="M234.9,46.821V57.563a.754.754,0,0,0,.819.636c.442-.017.819-.28.819-.636V46.821a.754.754,0,0,0-.819-.636c-.442.017-.819.28-.819.636Z" transform="translate(-234.9 -46.185)"/></g><g transform="translate(4.545 6.628)"><path class="a" d="M171.256,232.442c1.015,1.157,2.036,2.309,3.051,3.466.147.169.295.333.442.5a.824.824,0,0,0,1.157,0c1.015-1.157,2.036-2.309,3.051-3.466.147-.169.295-.333.442-.5a.834.834,0,0,0,0-1.157.824.824,0,0,0-1.157,0c-1.015,1.157-2.036,2.309-3.051,3.466-.147.169-.295.333-.442.5h1.157c-1.015-1.157-2.036-2.309-3.051-3.466-.147-.169-.295-.333-.442-.5a.824.824,0,0,0-1.157,0,.834.834,0,0,0,0,1.157Z" transform="translate(-171.022 -231.047)"/></g></g></g></svg>