<svg xmlns="http://www.w3.org/2000/svg" width="31.9" height="31.9" viewBox="0 0 31.9 31.9"><g transform="translate(-117 -310)"><circle cx="15.95" cy="15.95" r="15.95" transform="translate(117 310)" fill="#f1f1f1"/><g transform="translate(96 270.302)"><g transform="translate(29.558 46.698)"><g transform="translate(0 1.986)"><path d="M98.356,153.949h2.136c.046,0,.092,0,.139,0-.125,0,.083.014.134.032a1.2,1.2,0,0,1,.12.037c-.009,0-.1-.046-.023-.009s.125.069.19.1c.106.056.032.019,0,0a.711.711,0,0,1,.088.079c.037.037.153.194.083.083a1.769,1.769,0,0,1,.116.2c-.055-.116,0,.037.019.083a.6.6,0,0,1,.019.088c-.032-.125,0-.042,0,0v9.836c0,.032,0,.06,0,.092,0,.074.032-.1,0,.023-.009.037-.092.245-.028.116-.032.06-.065.12-.1.18s.014-.014.023-.023a.709.709,0,0,1-.079.088c-.037.037-.19.157-.088.088-.069.046-.139.083-.208.125-.028.014-.116.037,0,0l-.088.028a1.654,1.654,0,0,1-.217.051c.134-.018-.046,0-.079,0H91.041c-.338,0-.675,0-1.013,0-.014,0-.18,0-.111,0s-.046-.009-.069-.014a.674.674,0,0,1-.092-.023,1.186,1.186,0,0,1-.12-.037c.12.037,0,0-.032-.018a1.179,1.179,0,0,1-.18-.111c.111.074-.06-.06-.088-.088a.819.819,0,0,0-.06-.065c-.069-.079.051.088,0,0-.028-.046-.125-.254-.079-.12-.023-.065-.032-.139-.055-.2s0,.014,0,.037c0-.042,0-.083,0-.12v-9.836c0-.014.009-.111,0-.028s.009-.032.014-.055a.487.487,0,0,0,.023-.088c.037-.166-.037.055.009-.023a1.368,1.368,0,0,1,.106-.176c-.074.111.046-.051.083-.083s.06-.056.088-.079c-.009.009-.083.06-.018.019a1.763,1.763,0,0,1,.24-.134c-.116.051.065-.014.1-.023s.231-.028.1-.023c.06,0,.12,0,.18,0h1.975a.694.694,0,1,0,0-1.387c-.666,0-1.336-.009-2.007,0a2.246,2.246,0,0,0-2.28,2.21c0,1.341,0,2.682,0,4.023v5.031a3.4,3.4,0,0,0,.236,1.618,2.3,2.3,0,0,0,1.965,1.193c.1,0,.2,0,.305,0h9.457a6.729,6.729,0,0,0,1.295-.056,2.237,2.237,0,0,0,1.679-1.521,2.59,2.59,0,0,0,.083-.731v-9.586a2.15,2.15,0,0,0-.6-1.489c-.781-.814-1.9-.694-2.918-.694H98.37a.7.7,0,0,0-.694.694.685.685,0,0,0,.68.684Z" transform="translate(-87.756 -152.565)" fill="#888"/></g><g transform="translate(6.804 0)"><path d="M234.9,46.724v9.1a.639.639,0,0,0,.694.538c.375-.014.694-.237.694-.538v-9.1a.639.639,0,0,0-.694-.538c-.375.014-.694.237-.694.538Z" transform="translate(-234.9 -46.185)" fill="#888"/></g><g transform="translate(3.85 5.615)"><path d="M171.22,232.229c.86.98,1.725,1.956,2.585,2.936.125.143.25.282.375.425a.7.7,0,0,0,.98,0q1.29-1.47,2.585-2.936c.125-.143.25-.282.375-.425a.707.707,0,0,0,0-.98.7.7,0,0,0-.98,0c-.86.98-1.725,1.956-2.585,2.936-.125.143-.25.282-.375.425h.98c-.86-.98-1.725-1.956-2.585-2.936-.125-.143-.25-.282-.375-.425a.7.7,0,0,0-.98,0,.706.706,0,0,0,0,.98Z" transform="translate(-171.022 -231.047)" fill="#888"/></g></g></g></g></svg>