<svg xmlns="http://www.w3.org/2000/svg" viewBox="1502.306 351.409 17.596 17.591"><defs><style>.a{fill:#384055;}</style></defs><g transform="translate(1553.971 322.255)"><g transform="translate(-51.665 29.154)"><g transform="translate(0)"><path class="a" d="M26.872,37.073v5.595a3.9,3.9,0,0,1-.027.508l.034-.257a3.093,3.093,0,0,1-.209.764l.1-.231a3.109,3.109,0,0,1-.39.668l.151-.2a3.127,3.127,0,0,1-.543.544l.2-.151a3.1,3.1,0,0,1-.668.391l.231-.1a3.086,3.086,0,0,1-.763.209l.257-.034a5.869,5.869,0,0,1-.766.027H15.416a4.85,4.85,0,0,1-.635-.027l.257.034a3.091,3.091,0,0,1-.764-.209l.231.1a3.109,3.109,0,0,1-.668-.391l.2.151a3.131,3.131,0,0,1-.544-.544l.151.2a3.108,3.108,0,0,1-.391-.668l.1.231a3.088,3.088,0,0,1-.209-.764l.034.257a5.867,5.867,0,0,1-.028-.766V33.356a4.846,4.846,0,0,1,.028-.635l-.034.257a3.086,3.086,0,0,1,.209-.763l-.1.231a3.1,3.1,0,0,1,.391-.668l-.151.2a3.128,3.128,0,0,1,.544-.544l-.2.151a3.11,3.11,0,0,1,.668-.391l-.231.1a3.093,3.093,0,0,1,.764-.209l-.257.034a7.557,7.557,0,0,1,.978-.027h5.124a.965.965,0,1,0,0-1.931H15.29a4.109,4.109,0,0,0-2.2.6,3.972,3.972,0,0,0-1.8,2.608,6.137,6.137,0,0,0-.078,1.09v8.224a6.444,6.444,0,0,0,.271,2.524,4.16,4.16,0,0,0,.4.774,4.265,4.265,0,0,0,.552.663,4.167,4.167,0,0,0,1.475.9,4.236,4.236,0,0,0,1.466.214h9.181a5.452,5.452,0,0,0,1.2-.11,3.985,3.985,0,0,0,2.53-1.906,4.2,4.2,0,0,0,.517-2.1V37.073a.965.965,0,1,0-1.931,0Z" transform="translate(-11.207 -29.154)"/></g></g><g transform="translate(-44.504 30.118)"><path class="a" d="M384.031,80.447l-7.019,7.019-2.262.138.1-2.3,7.019-7.019a.628.628,0,0,1,.889-.012l1.284,1.284A.629.629,0,0,1,384.031,80.447Z" transform="translate(-374.75 -78.097)"/></g></g></svg>