<svg xmlns="http://www.w3.org/2000/svg" viewBox="-518 538 39.396 21"><defs><style>.a{fill:#384055;}</style></defs><g transform="translate(-478.604 673.836) rotate(180)"><g transform="translate(0 114.836)"><g transform="translate(0 0)"><path class="a" d="M256.52,135.836a1.077,1.077,0,0,1-1.077-1.077V115.913a1.077,1.077,0,0,1,1.077-1.077l17.5,9.692a1.118,1.118,0,0,1,0,1.615C273.212,126.951,256.52,135.836,256.52,135.836Z" transform="translate(-234.983 -114.836)"/><path class="a" d="M1.077,135.836A1.077,1.077,0,0,1,0,134.759V115.913a1.077,1.077,0,0,1,1.077-1.077l17.5,9.692a1.119,1.119,0,0,1,0,1.615C17.769,126.951,1.077,135.836,1.077,135.836Z" transform="translate(0 -114.836)"/></g></g></g></svg>