<svg xmlns="http://www.w3.org/2000/svg" viewBox="-279.5 537.5 24.348 21.772"><defs><style>.a{stroke:#000;}</style></defs><path class="a" d="M11.674,20.772a1.369,1.369,0,0,1-.9-.339c-.943-.825-1.853-1.6-2.655-2.283l0,0a49.374,49.374,0,0,1-5.8-5.441A8.69,8.69,0,0,1,0,7.017,7.3,7.3,0,0,1,1.852,2.033,6.278,6.278,0,0,1,6.523,0a5.873,5.873,0,0,1,3.668,1.266,7.505,7.505,0,0,1,1.483,1.549,7.506,7.506,0,0,1,1.483-1.549A5.873,5.873,0,0,1,16.826,0,6.279,6.279,0,0,1,21.5,2.033a7.3,7.3,0,0,1,1.852,4.984,8.689,8.689,0,0,1-2.316,5.688,49.369,49.369,0,0,1-5.8,5.441c-.8.685-1.715,1.461-2.66,2.288a1.37,1.37,0,0,1-.9.339ZM6.522,1.368A4.926,4.926,0,0,0,2.858,2.96a5.936,5.936,0,0,0-1.49,4.057,7.312,7.312,0,0,0,2,4.816A48.588,48.588,0,0,0,9,17.105l0,0c.805.686,1.718,1.464,2.668,2.3.956-.832,1.87-1.612,2.677-2.3a48.6,48.6,0,0,0,5.63-5.272,7.313,7.313,0,0,0,2-4.816A5.936,5.936,0,0,0,20.49,2.96a4.925,4.925,0,0,0-3.665-1.592,4.536,4.536,0,0,0-2.832.98,6.637,6.637,0,0,0-1.578,1.826.863.863,0,0,1-1.483,0A6.63,6.63,0,0,0,9.354,2.348a4.536,4.536,0,0,0-2.832-.98Zm0,0" transform="translate(-279 538)"/></svg>