<svg xmlns="http://www.w3.org/2000/svg" viewBox="-280 532 31.9 31.9">
  <defs>
    <style>
      .cls-1 {
        fill: #f1f1f1;
      }

      .cls-2 {
        fill: #358595;
        stroke: #9d9d9d;
      }
    </style>
  </defs>
  <g id="Group_79" data-name="Group 79" transform="translate(-602 36)">
    <g id="Group_71" data-name="Group 71">
      <g id="Symbol_2_1" data-name="Symbol 2 – 1">
        <circle id="Ellipse_18" data-name="Ellipse 18" class="cls-1" cx="15.95" cy="15.95" r="15.95" transform="translate(322 496)"/>
        <path id="heart" class="cls-2" d="M7.758,13.8a.91.91,0,0,1-.6-.225c-.627-.548-1.231-1.063-1.764-1.518l0,0A32.813,32.813,0,0,1,1.539,8.444,5.775,5.775,0,0,1,0,4.663,4.85,4.85,0,0,1,1.231,1.351,4.173,4.173,0,0,1,4.335,0,3.9,3.9,0,0,1,6.773.842a4.988,4.988,0,0,1,.986,1.029A4.988,4.988,0,0,1,8.744.842,3.9,3.9,0,0,1,11.182,0a4.173,4.173,0,0,1,3.1,1.351,4.85,4.85,0,0,1,1.231,3.312,5.775,5.775,0,0,1-1.539,3.78,32.81,32.81,0,0,1-3.852,3.616c-.534.455-1.139.971-1.768,1.52a.911.911,0,0,1-.6.225ZM4.335.909A3.274,3.274,0,0,0,1.9,1.967a3.945,3.945,0,0,0-.99,2.7,4.859,4.859,0,0,0,1.33,3.2,32.29,32.29,0,0,0,3.742,3.5l0,0c.535.456,1.142.973,1.773,1.525.635-.553,1.243-1.071,1.779-1.528a32.3,32.3,0,0,0,3.742-3.5,4.86,4.86,0,0,0,1.33-3.2,3.945,3.945,0,0,0-.99-2.7A3.273,3.273,0,0,0,11.182.909,3.015,3.015,0,0,0,9.3,1.561,4.411,4.411,0,0,0,8.251,2.774a.574.574,0,0,1-.986,0A4.407,4.407,0,0,0,6.217,1.561,3.014,3.014,0,0,0,4.335.909Zm0,0" transform="translate(329.975 505.304)"/>
      </g>
    </g>
  </g>
</svg>
