<svg xmlns="http://www.w3.org/2000/svg" viewBox="1501.475 451.804 19.927 17.839"><defs><style>.a{fill:#384055;stroke:#384055;}</style></defs><path class="a" d="M9.464,16.839a1.11,1.11,0,0,1-.732-.275c-.765-.669-1.5-1.3-2.152-1.851l0,0a40.025,40.025,0,0,1-4.7-4.411A7.045,7.045,0,0,1,0,5.688a5.916,5.916,0,0,1,1.5-4.04A5.09,5.09,0,0,1,5.287,0,4.761,4.761,0,0,1,8.261,1.027a6.084,6.084,0,0,1,1.2,1.255,6.085,6.085,0,0,1,1.2-1.255A4.761,4.761,0,0,1,13.64,0a5.09,5.09,0,0,1,3.786,1.648,5.916,5.916,0,0,1,1.5,4.04A7.044,7.044,0,0,1,17.05,10.3a40.021,40.021,0,0,1-4.7,4.41c-.652.555-1.39,1.184-2.156,1.855a1.111,1.111,0,0,1-.732.275ZM5.287,1.109A3.993,3.993,0,0,0,2.317,2.4,4.812,4.812,0,0,0,1.109,5.688a5.927,5.927,0,0,0,1.622,3.9A39.387,39.387,0,0,0,7.3,13.866l0,0c.653.556,1.393,1.187,2.163,1.861.775-.675,1.516-1.307,2.17-1.864A39.4,39.4,0,0,0,16.2,9.592a5.928,5.928,0,0,0,1.622-3.9A4.812,4.812,0,0,0,16.611,2.4,3.993,3.993,0,0,0,13.64,1.109a3.677,3.677,0,0,0-2.3.795,5.38,5.38,0,0,0-1.279,1.48.7.7,0,0,1-1.2,0A5.375,5.375,0,0,0,7.583,1.9a3.677,3.677,0,0,0-2.3-.795Zm0,0" transform="translate(1501.975 452.304)"/></svg>