<svg xmlns="http://www.w3.org/2000/svg" xmlns:xlink="http://www.w3.org/1999/xlink" width="31.9" height="31.9" viewBox="0 0 31.9 31.9"><defs><clipPath id="a"><rect width="31.9" height="31.9" fill="none"/></clipPath></defs><g transform="translate(217 -559)"><g transform="translate(-539 64)"><g transform="translate(0 -1)"><g transform="translate(322 496)" clip-path="url(#a)"><circle cx="15.95" cy="15.95" r="15.95" fill="#ddf9ff"/><path d="M7.758,13.8a.91.91,0,0,1-.6-.225c-.627-.548-1.231-1.063-1.764-1.518l0,0A32.813,32.813,0,0,1,1.539,8.444,5.775,5.775,0,0,1,0,4.663,4.85,4.85,0,0,1,1.231,1.351,4.173,4.173,0,0,1,4.335,0,3.9,3.9,0,0,1,6.773.842a4.988,4.988,0,0,1,.986,1.029A4.988,4.988,0,0,1,8.744.842,3.9,3.9,0,0,1,11.182,0a4.173,4.173,0,0,1,3.1,1.351,4.85,4.85,0,0,1,1.231,3.312,5.775,5.775,0,0,1-1.539,3.78,32.81,32.81,0,0,1-3.852,3.616c-.534.455-1.139.971-1.768,1.52a.911.911,0,0,1-.6.225ZM4.335.909A3.274,3.274,0,0,0,1.9,1.967a3.945,3.945,0,0,0-.99,2.7,4.859,4.859,0,0,0,1.33,3.2,32.29,32.29,0,0,0,3.742,3.5l0,0c.535.456,1.142.973,1.773,1.525.635-.553,1.243-1.071,1.779-1.528a32.3,32.3,0,0,0,3.742-3.5,4.86,4.86,0,0,0,1.33-3.2,3.945,3.945,0,0,0-.99-2.7A3.273,3.273,0,0,0,11.182.909,3.015,3.015,0,0,0,9.3,1.561,4.411,4.411,0,0,0,8.251,2.774a.574.574,0,0,1-.986,0A4.407,4.407,0,0,0,6.217,1.561,3.014,3.014,0,0,0,4.335.909Zm0,0" transform="translate(7.975 9.304)" fill="#ddf9ff" stroke="#358595" stroke-width="1"/></g></g></g><g transform="translate(-252.242 582.5)"><path d="M18.121,28.773a.935.935,0,0,1-.623-.241c-.643-.563-1.266-1.106-1.829-1.568h0a35.392,35.392,0,0,1-3.98-3.739,5.959,5.959,0,0,1-1.588-3.9,4.949,4.949,0,0,1,1.266-3.417A4.3,4.3,0,0,1,14.583,14.5a4.093,4.093,0,0,1,2.513.864,5.173,5.173,0,0,1,1.025,1.065,5.173,5.173,0,0,1,1.025-1.065,3.972,3.972,0,0,1,2.513-.864,4.336,4.336,0,0,1,3.216,1.407,4.985,4.985,0,0,1,1.266,3.417,5.92,5.92,0,0,1-1.588,3.9,35.392,35.392,0,0,1-3.98,3.739c-.543.462-1.186,1.005-1.829,1.568A.935.935,0,0,1,18.121,28.773Z" transform="translate(33 -29)" fill="#358595"/></g></g></svg>