<svg xmlns="http://www.w3.org/2000/svg" viewBox="1792 106 20.652 17.77"><defs><style>.a{fill:#384055;}</style></defs><g transform="translate(1792 106)"><path class="a" d="M13.338,13.327h-.861a.4.4,0,0,0-.43.37v2.591H1.721V1.481H12.047V4.072a.4.4,0,0,0,.43.37h.861a.4.4,0,0,0,.43-.37V1.481A1.615,1.615,0,0,0,12.047,0H1.721A1.615,1.615,0,0,0,0,1.481V16.289A1.615,1.615,0,0,0,1.721,17.77H12.047a1.615,1.615,0,0,0,1.721-1.481V13.7A.4.4,0,0,0,13.338,13.327Z"/><path class="a" d="M143.35,132.163l-5.163-4.072a.484.484,0,0,0-.464-.066.372.372,0,0,0-.257.339v.74a.349.349,0,0,0,.142.275L140.6,131.7H128.43a.4.4,0,0,0-.43.37v.74a.4.4,0,0,0,.43.37H140.6l-2.991,2.316a.349.349,0,0,0-.142.275v.74a.372.372,0,0,0,.257.339.484.484,0,0,0,.173.031.473.473,0,0,0,.291-.1l5.163-4.072a.337.337,0,0,0,0-.546Z" transform="translate(-122.837 -123.551)"/></g></svg>