<svg xmlns="http://www.w3.org/2000/svg" xmlns:xlink="http://www.w3.org/1999/xlink" viewBox="-463.5 504.5 97 97"><defs><style>.a{fill:#4cb6cb;}.b{opacity:0;}.c,.d{fill:#fff;}.c{fill-rule:evenodd;}.e{filter:url(#a);}</style><filter id="a" x="-463.5" y="504.5" width="97" height="97" filterUnits="userSpaceOnUse"><feOffset dy="6" input="SourceAlpha"/><feGaussianBlur stdDeviation="5.5" result="b"/><feFlood flood-color="#84c2cf" flood-opacity="0.722"/><feComposite operator="in" in2="b"/><feComposite in="SourceGraphic"/></filter></defs><g transform="translate(-608 -144)"><g class="e" transform="matrix(1, 0, 0, 1, 608, 144)"><circle class="a" cx="32" cy="32" r="32" transform="translate(-447 515)"/></g><g class="b" transform="translate(183.612 679.333)"><path class="c" d="M38.348,10.38,21.229.239A3.246,3.246,0,0,0,19.62,0c-1.9,0-1.89,1.378-1.89,1.727V22.457c0,.3-.008,1.727,1.89,1.727a3.247,3.247,0,0,0,1.609-.236L38.348,13.807c1.405-.786,1.162-1.714,1.162-1.714S39.753,11.166,38.348,10.38Z" transform="translate(-17.73 0)"/></g><g transform="translate(181.091 659.682)"><g transform="translate(2.12 19.117)"><rect class="d" width="24.888" height="7.234" rx="3.617" transform="translate(0 24.888) rotate(-90)"/><rect class="d" width="24.888" height="7.234" rx="3.617" transform="translate(11.963 24.888) rotate(-90)"/></g></g></g></svg>