<svg xmlns="http://www.w3.org/2000/svg" xmlns:xlink="http://www.w3.org/1999/xlink" viewBox="-463.5 505.5 97 97">
  <defs>
    <style>
      .cls-1 {
        fill: #4cb6cb;
      }

      .cls-2 {
        fill: #fff;
        fill-rule: evenodd;
      }

      .cls-3 {
        filter: url(#Ellipse_17);
      }
    </style>
    <filter id="Ellipse_17" x="-463.5" y="505.5" width="97" height="97" filterUnits="userSpaceOnUse">
      <feOffset dy="6" input="SourceAlpha"/>
      <feGaussianBlur stdDeviation="5.5" result="blur"/>
      <feFlood flood-color="#84c2cf" flood-opacity="0.722"/>
      <feComposite operator="in" in2="blur"/>
      <feComposite in="SourceGraphic"/>
    </filter>
  </defs>
  <g id="Group_59" data-name="Group 59" transform="translate(-608 -143)">
    <g class="cls-3" transform="matrix(1, 0, 0, 1, 608, 143)">
      <circle id="Ellipse_17-2" data-name="Ellipse 17" class="cls-1" cx="32" cy="32" r="32" transform="translate(-447 516)"/>
    </g>
    <g id="music-player-play" transform="translate(183.612 679.333)">
      <path id="Path_10" data-name="Path 10" class="cls-2" d="M38.348,10.38,21.229.239A3.246,3.246,0,0,0,19.62,0c-1.9,0-1.89,1.378-1.89,1.727V22.457c0,.3-.008,1.727,1.89,1.727a3.247,3.247,0,0,0,1.609-.236L38.348,13.807c1.405-.786,1.162-1.714,1.162-1.714S39.753,11.166,38.348,10.38Z" transform="translate(-17.73 0)"/>
    </g>
  </g>
</svg>
