<svg xmlns="http://www.w3.org/2000/svg" viewBox="797.848 83.456 17.3 13.117"><defs><style>.a{fill:#358595;stroke:#358595;}</style></defs><g transform="translate(944.348 122.803)"><path class="a" d="M18.986,17.726a.532.532,0,0,0-.641,0,.338.338,0,0,0,0,.537l1.554,1.3H18.46c-2.206,0-3.651-1.588-5.142-3.331,1.49-1.742,2.935-3.331,5.142-3.331H19.9l-1.554,1.3a.338.338,0,0,0,0,.537.518.518,0,0,0,.641,0L21.065,13a.6.6,0,0,0,0-.953L18.986,10.3a.532.532,0,0,0-.641,0,.338.338,0,0,0,0,.537l1.554,1.3H18.46c-2.557,0-4.184,1.681-5.7,3.439-1.514-1.757-3.141-3.439-5.7-3.439H5.453a.385.385,0,1,0,0,.759H7.063c2.207,0,3.652,1.589,5.142,3.331-1.49,1.742-2.935,3.331-5.142,3.331H5.453a.385.385,0,1,0,0,.759H7.063c2.557,0,4.185-1.681,5.7-3.439,1.514,1.757,3.141,3.439,5.7,3.439H19.9l-1.554,1.3a.338.338,0,0,0,0,.537.518.518,0,0,0,.642,0l2.079-1.74a.6.6,0,0,0,0-.953Z" transform="translate(-151 -49)"/></g></svg>