<svg xmlns="http://www.w3.org/2000/svg" viewBox="609.675 83 11.733 13.021"><defs><style>.a,.c{fill:#358595;}.a{fill-rule:evenodd;}.b,.c{stroke:none;}</style></defs><g transform="translate(609.675 83)"><g class="a" transform="translate(-17.73 0)"><path class="b" d="M 18.95153617858887 12.52022266387939 C 18.9166374206543 12.52022266387939 18.88243675231934 12.5198221206665 18.84924697875977 12.51943206787109 C 18.81420707702637 12.51903247833252 18.78017616271973 12.51865291595459 18.7474365234375 12.51865291595459 C 18.50494766235352 12.51865291595459 18.34957695007324 12.46473217010498 18.28564643859863 12.35840225219727 C 18.22997665405273 12.26580238342285 18.2299861907959 12.13875293731689 18.2299976348877 12.09093284606934 L 18.2299976348877 0.9310824871063232 C 18.2299861907959 0.8678824901580811 18.22997665405273 0.7416424751281738 18.28363800048828 0.6539524793624878 C 18.36082649230957 0.5277724862098694 18.57846641540527 0.5012924671173096 18.7474365234375 0.5012924671173096 C 18.78029632568359 0.5012924671173096 18.81443786621094 0.5009124875068665 18.84958648681641 0.5005024671554565 C 18.88287734985352 0.5001124739646912 18.91718673706055 0.4997024834156036 18.95221710205078 0.4997024834156036 C 19.09916496276855 0.4997024834156036 19.26276397705078 0.5072211623191833 19.36534118652344 0.5624254941940308 L 28.57427787780762 6.017632484436035 L 28.5796070098877 6.020782470703125 L 28.58501625061035 6.023812294006348 C 28.87754058837891 6.187442302703857 28.9592113494873 6.344419956207275 28.96329498291016 6.412952899932861 L 28.93790626525879 6.509922504425049 L 28.96328544616699 6.606884956359863 C 28.9592113494873 6.675423622131348 28.87752723693848 6.832454681396484 28.58493614196777 6.996152400970459 L 28.57954788208008 6.999162673950195 L 28.57422637939453 7.002312660217285 L 19.36549377441406 12.45736885070801 C 19.2628002166748 12.51269721984863 19.09881591796875 12.52022266387939 18.95153617858887 12.52022266387939 Z"/><path class="c" d="M 18.9515266418457 12.02022266387939 C 19.06644439697266 12.02022266387939 19.11819267272949 12.01397895812988 19.14048004150391 12.00952053070068 L 28.31938743591309 6.572132587432861 L 28.33002662658691 6.565832614898682 L 28.34081649780273 6.559792518615723 C 28.37335777282715 6.541588306427002 28.39981079101563 6.524898529052734 28.42114067077637 6.510175704956055 L 28.42106628417969 6.509892463684082 L 28.42111587524414 6.509705543518066 C 28.39981269836426 6.495008945465088 28.37339210510254 6.478346824645996 28.34091758728027 6.460182666778564 L 28.33010673522949 6.454132556915283 L 28.31943702697754 6.447812557220459 L 19.14047431945801 1.010360956192017 C 19.11821937561035 1.005916476249695 19.06662368774414 0.999702513217926 18.95221710205078 0.999702513217926 C 18.9191780090332 0.999702513217926 18.88681793212891 1.000102519989014 18.85540771484375 1.000462532043457 C 18.81825637817383 1.000892519950867 18.78217697143555 1.00129246711731 18.7474365234375 1.00129246711731 C 18.74141883850098 1.00129246711731 18.73560333251953 1.001341581344604 18.7299976348877 1.001433730125427 L 18.7299976348877 12.01850032806396 C 18.7355899810791 12.01859951019287 18.74140167236328 12.01865291595459 18.7474365234375 12.01865291595459 C 18.78201675415039 12.01865291595459 18.81796646118164 12.01904201507568 18.8549861907959 12.01947212219238 C 18.88630676269531 12.01983261108398 18.91858673095703 12.02022266387939 18.9515266418457 12.02022266387939 M 18.9515266418457 13.02022266387939 C 18.87990570068359 13.02022171020508 18.81107902526855 13.01865291595459 18.7474365234375 13.01865291595459 C 17.72552680969238 13.01865291595459 17.7299976348877 12.2476921081543 17.7299976348877 12.08880233764648 L 17.7299976348877 0.9310824871063232 C 17.7299976348877 0.7431424856185913 17.72546768188477 0.001292490866035223 18.7474365234375 0.001292490866035223 C 18.81131172180176 0.001292490866035223 18.88031959533691 -0.0002950091438833624 18.95222091674805 -0.0002950091438833624 C 19.16792869567871 -0.0002950091438833624 19.40934371948242 0.01400749105960131 19.61366653442383 0.1283824890851974 L 28.8291072845459 5.587442398071289 C 29.58550643920898 6.010552406311035 29.45475769042969 6.509942531585693 29.45475769042969 6.509942531585693 C 29.45475769042969 6.509942531585693 29.58545684814453 7.009332656860352 28.82905769348145 7.432502269744873 L 19.61366653442383 12.89150238037109 C 19.40913200378418 13.00597190856934 19.16744613647461 13.02022457122803 18.9515266418457 13.02022266387939 Z"/></g></g></svg>