<svg xmlns="http://www.w3.org/2000/svg" width="13.214" height="18.377" viewBox="0 0 13.214 18.377">
  <g id="noun_Music_542676" transform="translate(15.352 -17.095)">
    <g id="Group_112" data-name="Group 112" transform="translate(-15.352 17.095)">
      <g id="Group_111" data-name="Group 111" transform="translate(0 0)">
        <g id="Group_110" data-name="Group 110" transform="translate(0 0)">
          <path id="Path_60" data-name="Path 60" d="M7.8,11.556V1.391a.568.568,0,0,1-.006-.08V.428a.3.3,0,0,1,.449-.3s3.464,1.426,4.322,2.641c.9,1.273,1.288,4.886,1.288,4.886a.418.418,0,0,1-.428.482H12.7a.575.575,0,0,1-.552-.481A13.5,13.5,0,0,0,11.2,3.836a4.708,4.708,0,0,0-1.62-1.263V14.649a.5.5,0,0,1-.019.136,4.221,4.221,0,0,1-4.454,3.687c-2.462,0-4.458-1.724-4.458-3.851s2-3.851,4.458-3.851A4.911,4.911,0,0,1,7.8,11.556Z" transform="translate(-0.648 -0.095)" fill="#358595" fill-rule="evenodd"/>
        </g>
      </g>
    </g>
  </g>
</svg>
