<?xml version="1.0" encoding="utf-8"?>
<!-- Generator: Adobe Illustrator 23.0.2, SVG Export Plug-In . SVG Version: 6.00 Build 0)  -->
<svg version="1.1" id="Capa_1" xmlns="http://www.w3.org/2000/svg" xmlns:xlink="http://www.w3.org/1999/xlink" x="0px" y="0px"
	 viewBox="0 0 512 512" style="enable-background:new 0 0 512 512;" xml:space="preserve">
<style type="text/css">
	.st0{fill:#FFFFFF;}
</style>
<g id="noun_pause_1738041" transform="translate(-2.12 -19.117)">
	<g id="Group_51" transform="translate(2.12 19.117)">
		<path id="Rectangle_8" class="st0" d="M60.8,435.4V76.6C60.8,35.9,93.8,3,134.4,3l0,0c40.6,0,73.5,32.9,73.5,73.6v358.9
			c0,40.6-32.9,73.6-73.5,73.6l0,0C93.8,509,60.8,476.1,60.8,435.4z"/>
		<path id="Rectangle_9" class="st0" d="M304.1,435.4V76.6C304.1,35.9,337,3,377.6,3l0,0c40.6,0,73.5,32.9,73.5,73.6v358.9
			c0,40.6-32.9,73.6-73.5,73.6l0,0C337,509,304.1,476.1,304.1,435.4z"/>
	</g>
</g>
</svg>
