<?xml version="1.0" encoding="utf-8"?>
<!-- Generator: Adobe Illustrator 23.0.2, SVG Export Plug-In . SVG Version: 6.00 Build 0)  -->
<svg version="1.1" id="Layer_1" xmlns="http://www.w3.org/2000/svg" xmlns:xlink="http://www.w3.org/1999/xlink" x="0px" y="0px"
	 viewBox="0 0 200 100" style="enable-background:new 0 0 200 100;" xml:space="preserve">
<style type="text/css">
	.st0{fill:#FFFFFF;}
	.st1{fill:url(#SVGID_1_);}
	.st2{fill:url(#SVGID_2_);}
	.st3{fill:#358595;}
	.st4{opacity:0.37;fill:url(#SVGID_3_);stroke:url(#SVGID_4_);stroke-width:0.75;stroke-miterlimit:10;}
	.st5{fill:url(#SVGID_5_);}
	.st6{fill:url(#SVGID_6_);}
</style>
<g>
	<path class="st0" d="M78.3,54.4c0-11.7,0-23.4,0-35.1c36.7,0,73.4,0,110.1,0c0,21.9,0,43.9,0,65.8c-36.7,0-73.4,0-110.1,0
		c0-10.1,0-20.2,0-30.4c0.3,0.3,0.6,0.5,0.7,0.8c2,3.3,4.8,5.6,8.2,7.4c1,0.5,2,1,3.1,1.6c-0.2,0.7-0.4,1.3-0.5,1.8
		c-1,4-2.1,8-2.9,12.1c-0.6,3.3,1.4,5.9,4.3,6.1c0.7-2.9,1.3-5.7,2.2-8.5c0.9-2.8,2.3-5.5,3.4-8.3c0.4-0.9,0.9-1.1,1.9-1.1
		c3.5,0.1,7.1,0.5,10.5-0.1c12.7-2.3,21.6-10,27.1-21.5c4.1-8.5,1.5-14.8-7.4-18c-5.8-2.1-11.8-2.4-17.8-1.8
		c-10.4,1.1-19.9,4.7-28,11.4c-3.8,3.1-3,8.6,1.4,11c1-1.1,2-2.3,3.1-3.3c7.7-6.7,16.5-11.2,26.7-12.5c5.2-0.7,10.5-0.1,15.3,2.4
		c3.1,1.6,3.8,3.3,2.7,6.6c-0.7,2.2-1.6,4.5-2.7,6.6c-6.2,11.5-16,17-28.9,17c-0.7,0-1.5-0.3-2.3-0.4c0.3-0.8,0.5-1.3,0.7-1.8
		c2.2-5.1,4.5-10.3,6.6-15.5c0.5-1.2,0.6-3,0-4.1c-1.2-2.3-3.6-3.2-5.7-3.9c-3.1,8-6.1,15.8-9.2,23.6c-4.2-1.3-7.6-3.6-10.6-6.6
		C79.8,55.1,79,54.8,78.3,54.4z M172.3,48.3c-0.2-0.3-0.5-0.5-0.6-0.7c-0.9-1.5-1.9-1.5-3.1-0.4c-1.1,0.9-2.2,1.7-3.1,2.8
		c-4.8,5.2-7.8,11.3-7.2,18.5c0.2,2.3-0.2,4-1.7,5.6c-0.6,0.7-1.1,1.5-1.8,2.1c-1.3,1.2-2.7,2.3-4.1,3.4c-0.2-0.1-0.4-0.2-0.6-0.3
		c0-0.7-0.2-1.5-0.1-2.2c0.4-2.2,0.9-4.4,1.5-6.6c3.7-12,9.1-23.2,14.2-34.6c1.1-2.5,2.4-4.9,3.3-7.5c0.4-1.1,0.5-2.7,0-3.6
		c-1.3-2.4-3.7-3.5-6.1-4.4c-1,2.9-1.8,5.6-2.8,8.2C155,41.7,150,55,146.6,68.8c-1,4-3.9,5.7-7.4,6.8c-1.7,0.6-2.8-0.4-2.9-2.3
		c0-1.5-0.2-3.2,0.4-4.5c2-4.8,4.2-9.5,6.5-14.2c0.9-1.8,1.3-3.5,0.2-5.2c-1.2-1.8-2.8-3-4.9-3.6c-2.4,3.9-6.8,15.7-7.4,19.8
		c-0.6,3.5-0.7,6.9,1,10.2c1.1,2.2,2.9,3.2,5.3,3.3c2.3,0.1,4.3-0.5,6.2-1.9c0.4-0.3,0.7-0.5,1.3-0.8c0,1.6-0.3,2.9,0.1,4.1
		c0.4,1.2,1.1,2.6,2.1,3.4c1.3,1,2.9,0.5,4-0.6c1.6-1.5,3.1-3.1,4.6-4.7c1.3-1.5,2.4-3.2,3.7-5c0.4,0.6,0.8,1.1,1.1,1.6
		c2.2,3.2,5.5,4.7,9.2,3.6c1.9-0.5,3.6-1.7,5.2-2.8c1-0.7,1.7-1,2.9-0.7c2.6,0.6,5.1,0.1,7.3-1.4c1.4-1,2.5-2.2,2.6-4.3
		c-2.8,1.2-4.9,3.7-8.3,2.6c0.7-1.2,1.3-2.1,2-3.1c3-4.7,4.6-9.8,3.7-15.5c-0.8-5.3-5.1-8.2-9.7-6.6
		C174.3,47.2,173.4,47.8,172.3,48.3z M141.5,40.3c0,2.6,1.1,4,3.1,4c2.3,0,4.6-2.3,4.6-4.6c0-2.2-1.5-3.7-3.8-3.7
		C143,36.1,141.6,37.7,141.5,40.3z"/>
	<linearGradient id="SVGID_1_" gradientUnits="userSpaceOnUse" x1="78.2604" y1="54.6451" x2="138.38" y2="54.6451">
		<stop  offset="0" style="stop-color:#4CB6CB"/>
		<stop  offset="1" style="stop-color:#384055"/>
	</linearGradient>
	<path class="st1" d="M78.3,54.4c0.7,0.4,1.5,0.7,2.1,1.3c3,3,6.4,5.4,10.6,6.6c3.1-7.9,6.1-15.6,9.2-23.6c2.1,0.7,4.5,1.7,5.7,3.9
		c0.6,1.1,0.5,2.9,0,4.1c-2.1,5.2-4.4,10.3-6.6,15.5c-0.2,0.5-0.4,1-0.7,1.8c0.8,0.2,1.6,0.4,2.3,0.4c12.9-0.1,22.7-5.6,28.9-17
		c1.1-2.1,2-4.3,2.7-6.6c1.1-3.3,0.4-5-2.7-6.6c-4.8-2.5-10.1-3-15.3-2.4c-10.2,1.3-19,5.7-26.7,12.5c-1.1,1-2.1,2.2-3.1,3.3
		c-4.4-2.3-5.2-7.8-1.4-11c8.1-6.7,17.6-10.3,28-11.4c6.1-0.6,12.1-0.3,17.8,1.8c8.9,3.2,11.6,9.5,7.4,18
		c-5.6,11.5-14.4,19.1-27.1,21.5c-3.4,0.6-7,0.2-10.5,0.1c-1.1,0-1.6,0.2-1.9,1.1c-1.1,2.8-2.4,5.5-3.4,8.3
		c-0.9,2.7-1.5,5.6-2.2,8.5c-2.9-0.2-5-2.7-4.3-6.1c0.8-4.1,1.9-8.1,2.9-12.1c0.1-0.6,0.3-1.2,0.5-1.8c-1.1-0.5-2.1-1-3.1-1.6
		c-3.4-1.7-6.2-4.1-8.2-7.4c-0.2-0.3-0.5-0.5-0.7-0.8C78.3,54.6,78.3,54.5,78.3,54.4z"/>
	<linearGradient id="SVGID_2_" gradientUnits="userSpaceOnUse" x1="130.7031" y1="52.3217" x2="187.6771" y2="52.3217">
		<stop  offset="0" style="stop-color:#4CB6CB"/>
		<stop  offset="1" style="stop-color:#384055"/>
	</linearGradient>
	<path class="st2" d="M172.3,48.3c1-0.5,2-1.1,3-1.5c4.6-1.6,8.8,1.4,9.7,6.6c0.9,5.7-0.7,10.7-3.7,15.5c-0.6,1-1.2,1.9-2,3.1
		c3.5,1.1,5.6-1.4,8.3-2.6c-0.1,2.1-1.2,3.4-2.6,4.3c-2.2,1.5-4.7,2-7.3,1.4c-1.2-0.3-2,0-2.9,0.7c-1.6,1.1-3.3,2.3-5.2,2.8
		c-3.7,1.1-7-0.4-9.2-3.6c-0.3-0.5-0.7-1-1.1-1.6c-1.3,1.8-2.4,3.4-3.7,5c-1.4,1.7-3,3.2-4.6,4.7c-1.2,1.1-2.8,1.5-4,0.6
		c-1-0.8-1.7-2.1-2.1-3.4c-0.3-1.2-0.1-2.5-0.1-4.1c-0.6,0.4-1,0.6-1.3,0.8c-1.8,1.4-3.9,1.9-6.2,1.9c-2.4-0.1-4.2-1.1-5.3-3.3
		c-1.7-3.3-1.6-6.7-1-10.2c0.7-4.2,5.1-15.9,7.4-19.8c2,0.6,3.7,1.8,4.9,3.6c1.1,1.7,0.7,3.4-0.2,5.2c-2.3,4.7-4.5,9.4-6.5,14.2
		c-0.6,1.3-0.4,3-0.4,4.5c0,1.9,1.2,2.8,2.9,2.3c3.4-1.1,6.4-2.8,7.4-6.8C150,55,155,41.7,160.1,28.5c1-2.6,1.8-5.3,2.8-8.2
		c2.4,1,4.8,2,6.1,4.4c0.5,1,0.4,2.5,0,3.6c-0.9,2.6-2.2,5-3.3,7.5c-5.1,11.4-10.5,22.7-14.2,34.6c-0.7,2.1-1.1,4.4-1.5,6.6
		c-0.1,0.7,0,1.5,0.1,2.2c0.2,0.1,0.4,0.2,0.6,0.3c1.4-1.1,2.8-2.2,4.1-3.4c0.7-0.6,1.2-1.4,1.8-2.1c1.4-1.6,1.8-3.3,1.7-5.6
		c-0.6-7.2,2.5-13.3,7.2-18.5c0.9-1,2.1-1.8,3.1-2.8c1.2-1.1,2.3-1.1,3.1,0.4C171.9,47.9,172.1,48.1,172.3,48.3z M173.1,74.1
		c0-0.2-0.1-0.5-0.1-0.7c-5.4-3.8-5.2-9.5-5.2-15.1c-0.3,0-0.4,0-0.5,0c-3.6,3.9-5.5,8.3-4.4,13.7c0.5,2.6,2.8,4.6,5.2,4.2
		C169.8,75.9,171.5,74.8,173.1,74.1z M175.6,70.9c3.4-5.1,4.4-10.1,3.6-15.5c-0.2-1.3-1.1-1.5-2.2-0.8c-0.4,0.3-0.9,0.7-1.2,1.1
		c-2.6,3.8-3.4,7.9-2.1,12.3C174,69,174.8,69.7,175.6,70.9z"/>
	<path class="st3" d="M141.5,40.3c0-2.6,1.5-4.2,3.9-4.2c2.3,0,3.8,1.5,3.8,3.7c0,2.3-2.3,4.5-4.6,4.6
		C142.6,44.4,141.5,42.9,141.5,40.3z"/>
	<path class="st0" d="M173.1,74.1c-1.7,0.7-3.3,1.8-5,2.1c-2.4,0.4-4.6-1.6-5.2-4.2c-1.1-5.3,0.8-9.8,4.4-13.7c0.1-0.1,0.2,0,0.5,0
		c0,5.6-0.2,11.3,5.2,15.1C173,73.6,173.1,73.8,173.1,74.1z"/>
	<path class="st0" d="M175.6,70.9c-0.8-1.2-1.6-1.9-1.8-2.8c-1.3-4.4-0.5-8.5,2.1-12.3c0.3-0.4,0.7-0.8,1.2-1.1c1-0.7,2-0.5,2.2,0.8
		C180,60.8,179,65.8,175.6,70.9z"/>
</g>
<linearGradient id="SVGID_3_" gradientUnits="userSpaceOnUse" x1="16.2979" y1="50" x2="62.766" y2="50">
	<stop  offset="0" style="stop-color:#FFFFFF"/>
	<stop  offset="1" style="stop-color:#4CB6CB"/>
</linearGradient>
<linearGradient id="SVGID_4_" gradientUnits="userSpaceOnUse" x1="15.9229" y1="50" x2="63.141" y2="50">
	<stop  offset="0" style="stop-color:#4CB6CB"/>
	<stop  offset="1" style="stop-color:#384055"/>
</linearGradient>
<circle class="st4" cx="39.5" cy="50" r="23.2"/>
<g>
	<g>
		<g>
			
				<linearGradient id="SVGID_5_" gradientUnits="userSpaceOnUse" x1="29.6242" y1="48.7638" x2="54.3346" y2="48.7638" gradientTransform="matrix(1 0 0 -1 0 100)">
				<stop  offset="0" style="stop-color:#4CB6CB"/>
				<stop  offset="1" style="stop-color:#384055"/>
			</linearGradient>
			<path class="st5" d="M35.1,68.1c0-2.8,0-5.5,0-8c-0.7-0.1-1.2-0.2-1.8-0.4c-2.2-0.7-3.6-2.6-3.7-4.9c0-4.6-0.1-9.1,0-13.7
				c0-4,3.4-7.1,7.3-6.7c1.2,0.1,2.4,0.6,3.4,1.2c3.5,1.9,6.9,4,10.4,5.9c0.4,0.2,0.8,0.4,1.1,0.7c3.3,2.2,3.2,7-0.3,9
				c-3.2,1.8-6.4,3.6-9.6,5.5c-0.7,0.4-1.5,0.9-2.2,1.3c-0.4,0.2-0.5,0.4-0.5,0.8c0,2.1,0,4.2,0,6.3c0,0.4-0.1,0.7-0.5,0.9
				C37.7,66.6,36.5,67.3,35.1,68.1z M39.3,53.3c0.3-0.2,0.5-0.3,0.7-0.4c3.1-1.7,6.2-3.5,9.2-5.2c1.1-0.6,1.1-1.5,0-2.1
				c-2.7-1.6-5.4-3.2-8.2-4.7c-1.1-0.6-1.8-0.2-1.8,1.1c0,3.5,0,7.1,0,10.6C39.3,52.7,39.3,53,39.3,53.3z M36,38.7
				c-1.3,0.4-2.1,1.3-2.1,2.5c0,4.5,0,9,0,13.4c0,0.7,0.4,1,1.2,1c0-0.3,0-0.6,0-0.8c0-4,0-8,0-11.9C35.1,41.5,35.1,40.1,36,38.7z"
				/>
			<g>
				
					<linearGradient id="SVGID_6_" gradientUnits="userSpaceOnUse" x1="35.0898" y1="47.7852" x2="54.3692" y2="47.7852" gradientTransform="matrix(1 0 0 -1 0 100)">
					<stop  offset="0" style="stop-color:#4CB6CB"/>
					<stop  offset="1" style="stop-color:#384055"/>
				</linearGradient>
				<path class="st6" d="M35.2,68.1c0-0.3,0-0.5,0-0.7c0-3.6-0.1-7.3-0.1-10.9c0-4.9,0-9.7,0-14.6c0-2.8,1.4-4.7,4-5.4
					c1.3-0.4,2.6-0.2,3.8,0.5c2.9,1.7,5.9,3.4,8.8,5.1c3.5,2.1,3.6,7,0.1,9.1c-3.7,2.2-12.4,7.3-12.4,7.3c0,2.2,0,4.4,0,6.7
					c0,0.5-0.1,0.7-0.5,0.9C37.7,66.7,36.5,67.4,35.2,68.1z M39.4,47.3C39.4,47.3,39.3,47.3,39.4,47.3c0,0.5,0,1,0,1.5
					c0,1.4,0,2.9,0,4.3c0,0.2,1.4-0.4,1.9-0.7c2.7-1.6,5.4-3.1,8.2-4.6c1-0.6,1-1.5,0-2.1c-2.8-1.6-5.6-3.2-8.4-4.8
					c-0.9-0.5-1.7-0.1-1.7,1C39.3,43.7,39.4,45.5,39.4,47.3z"/>
			</g>
		</g>
	</g>
</g>
</svg>
