<?xml version="1.0" encoding="utf-8"?>
<!-- Generator: Adobe Illustrator 23.0.2, SVG Export Plug-In . SVG Version: 6.00 Build 0)  -->
<svg version="1.1" id="Layer_1" xmlns="http://www.w3.org/2000/svg" xmlns:xlink="http://www.w3.org/1999/xlink" x="0px" y="0px"
	 viewBox="0 0 200 100" style="enable-background:new 0 0 200 100;" xml:space="preserve">
<style type="text/css">
	.st0{fill:#FFFFFF;}
	.st1{fill:url(#SVGID_1_);}
	.st2{fill:url(#SVGID_2_);}
	.st3{fill:#358595;}
	.st4{fill:url(#SVGID_3_);}
	.st5{fill:url(#SVGID_4_);}
</style>
<g>
	<g>
		<path class="st0" d="M78.3,54.4c0-11.7,0-23.4,0-35.1c36.7,0,73.4,0,110.1,0c0,21.9,0,43.9,0,65.8c-36.7,0-73.4,0-110.1,0
			c0-10.1,0-20.2,0-30.4c0.3,0.3,0.6,0.5,0.7,0.8c2,3.3,4.8,5.6,8.2,7.4c1,0.5,2,1,3.1,1.6c-0.2,0.7-0.4,1.3-0.5,1.8
			c-1,4-2.1,8-2.9,12.1c-0.6,3.3,1.4,5.9,4.3,6.1c0.7-2.9,1.3-5.7,2.2-8.5c0.9-2.8,2.3-5.5,3.4-8.3c0.4-0.9,0.9-1.1,1.9-1.1
			c3.5,0.1,7.1,0.5,10.5-0.1c12.7-2.3,21.6-10,27.1-21.5c4.1-8.5,1.5-14.8-7.4-18c-5.8-2.1-11.8-2.4-17.8-1.8
			c-10.4,1.1-19.9,4.7-28,11.4c-3.8,3.1-3,8.6,1.4,11c1-1.1,2-2.3,3.1-3.3c7.7-6.7,16.5-11.2,26.7-12.5c5.2-0.7,10.5-0.1,15.3,2.4
			c3.1,1.6,3.8,3.3,2.7,6.6c-0.7,2.2-1.6,4.5-2.7,6.6c-6.2,11.5-16,17-28.9,17c-0.7,0-1.5-0.3-2.3-0.4c0.3-0.8,0.5-1.3,0.7-1.8
			c2.2-5.1,4.5-10.3,6.6-15.5c0.5-1.2,0.6-3,0-4.1c-1.2-2.3-3.6-3.2-5.7-3.9c-3.1,8-6.1,15.8-9.2,23.6c-4.2-1.3-7.6-3.6-10.6-6.6
			C79.8,55.1,79,54.8,78.3,54.4z M172.3,48.3c-0.2-0.3-0.5-0.5-0.6-0.7c-0.9-1.5-1.9-1.5-3.1-0.4c-1.1,0.9-2.2,1.7-3.1,2.8
			c-4.8,5.2-7.8,11.3-7.2,18.5c0.2,2.3-0.2,4-1.7,5.6c-0.6,0.7-1.1,1.5-1.8,2.1c-1.3,1.2-2.7,2.3-4.1,3.4c-0.2-0.1-0.4-0.2-0.6-0.3
			c0-0.7-0.2-1.5-0.1-2.2c0.4-2.2,0.9-4.4,1.5-6.6c3.7-12,9.1-23.2,14.2-34.6c1.1-2.5,2.4-4.9,3.3-7.5c0.4-1.1,0.5-2.7,0-3.6
			c-1.3-2.4-3.7-3.5-6.1-4.4c-1,2.9-1.8,5.6-2.8,8.2C155,41.7,150,55,146.6,68.8c-1,4-3.9,5.7-7.4,6.8c-1.7,0.6-2.8-0.4-2.9-2.3
			c0-1.5-0.2-3.2,0.4-4.5c2-4.8,4.2-9.5,6.5-14.2c0.9-1.8,1.3-3.5,0.2-5.2c-1.2-1.8-2.8-3-4.9-3.6c-2.4,3.9-6.8,15.7-7.4,19.8
			c-0.6,3.5-0.7,6.9,1,10.2c1.1,2.2,2.9,3.2,5.3,3.3c2.3,0.1,4.3-0.5,6.2-1.9c0.4-0.3,0.7-0.5,1.3-0.8c0,1.6-0.3,2.9,0.1,4.1
			c0.4,1.2,1.1,2.6,2.1,3.4c1.3,1,2.9,0.5,4-0.6c1.6-1.5,3.1-3.1,4.6-4.7c1.3-1.5,2.4-3.2,3.7-5c0.4,0.6,0.8,1.1,1.1,1.6
			c2.2,3.2,5.5,4.7,9.2,3.6c1.9-0.5,3.6-1.7,5.2-2.8c1-0.7,1.7-1,2.9-0.7c2.6,0.6,5.1,0.1,7.3-1.4c1.4-1,2.5-2.2,2.6-4.3
			c-2.8,1.2-4.9,3.7-8.3,2.6c0.7-1.2,1.3-2.1,2-3.1c3-4.7,4.6-9.8,3.7-15.5c-0.8-5.3-5.1-8.2-9.7-6.6
			C174.3,47.2,173.4,47.8,172.3,48.3z M141.5,40.3c0,2.6,1.1,4,3.1,4c2.3,0,4.6-2.3,4.6-4.6c0-2.2-1.5-3.7-3.8-3.7
			C143,36.1,141.6,37.7,141.5,40.3z"/>
		<linearGradient id="SVGID_1_" gradientUnits="userSpaceOnUse" x1="78.2604" y1="54.6451" x2="138.38" y2="54.6451">
			<stop  offset="0" style="stop-color:#4CB6CB"/>
			<stop  offset="1" style="stop-color:#384055"/>
		</linearGradient>
		<path class="st1" d="M78.3,54.4c0.7,0.4,1.5,0.7,2.1,1.3c3,3,6.4,5.4,10.6,6.6c3.1-7.9,6.1-15.6,9.2-23.6c2.1,0.7,4.5,1.7,5.7,3.9
			c0.6,1.1,0.5,2.9,0,4.1c-2.1,5.2-4.4,10.3-6.6,15.5c-0.2,0.5-0.4,1-0.7,1.8c0.8,0.2,1.6,0.4,2.3,0.4c12.9-0.1,22.7-5.6,28.9-17
			c1.1-2.1,2-4.3,2.7-6.6c1.1-3.3,0.4-5-2.7-6.6c-4.8-2.5-10.1-3-15.3-2.4c-10.2,1.3-19,5.7-26.7,12.5c-1.1,1-2.1,2.2-3.1,3.3
			c-4.4-2.3-5.2-7.8-1.4-11c8.1-6.7,17.6-10.3,28-11.4c6.1-0.6,12.1-0.3,17.8,1.8c8.9,3.2,11.6,9.5,7.4,18
			c-5.6,11.5-14.4,19.1-27.1,21.5c-3.4,0.6-7,0.2-10.5,0.1c-1.1,0-1.6,0.2-1.9,1.1c-1.1,2.8-2.4,5.5-3.4,8.3
			c-0.9,2.7-1.5,5.6-2.2,8.5c-2.9-0.2-5-2.7-4.3-6.1c0.8-4.1,1.9-8.1,2.9-12.1c0.1-0.6,0.3-1.2,0.5-1.8c-1.1-0.5-2.1-1-3.1-1.6
			c-3.4-1.7-6.2-4.1-8.2-7.4c-0.2-0.3-0.5-0.5-0.7-0.8C78.3,54.6,78.3,54.5,78.3,54.4z"/>
		<linearGradient id="SVGID_2_" gradientUnits="userSpaceOnUse" x1="130.7031" y1="52.3217" x2="187.6771" y2="52.3217">
			<stop  offset="0" style="stop-color:#4CB6CB"/>
			<stop  offset="1" style="stop-color:#384055"/>
		</linearGradient>
		<path class="st2" d="M172.3,48.3c1-0.5,2-1.1,3-1.5c4.6-1.6,8.8,1.4,9.7,6.6c0.9,5.7-0.7,10.7-3.7,15.5c-0.6,1-1.2,1.9-2,3.1
			c3.5,1.1,5.6-1.4,8.3-2.6c-0.1,2.1-1.2,3.4-2.6,4.3c-2.2,1.5-4.7,2-7.3,1.4c-1.2-0.3-2,0-2.9,0.7c-1.6,1.1-3.3,2.3-5.2,2.8
			c-3.7,1.1-7-0.4-9.2-3.6c-0.3-0.5-0.7-1-1.1-1.6c-1.3,1.8-2.4,3.4-3.7,5c-1.4,1.7-3,3.2-4.6,4.7c-1.2,1.1-2.8,1.5-4,0.6
			c-1-0.8-1.7-2.1-2.1-3.4c-0.3-1.2-0.1-2.5-0.1-4.1c-0.6,0.4-1,0.6-1.3,0.8c-1.8,1.4-3.9,1.9-6.2,1.9c-2.4-0.1-4.2-1.1-5.3-3.3
			c-1.7-3.3-1.6-6.7-1-10.2c0.7-4.2,5.1-15.9,7.4-19.8c2,0.6,3.7,1.8,4.9,3.6c1.1,1.7,0.7,3.4-0.2,5.2c-2.3,4.7-4.5,9.4-6.5,14.2
			c-0.6,1.3-0.4,3-0.4,4.5c0,1.9,1.2,2.8,2.9,2.3c3.4-1.1,6.4-2.8,7.4-6.8C150,55,155,41.7,160.1,28.5c1-2.6,1.8-5.3,2.8-8.2
			c2.4,1,4.8,2,6.1,4.4c0.5,1,0.4,2.5,0,3.6c-0.9,2.6-2.2,5-3.3,7.5c-5.1,11.4-10.5,22.7-14.2,34.6c-0.7,2.1-1.1,4.4-1.5,6.6
			c-0.1,0.7,0,1.5,0.1,2.2c0.2,0.1,0.4,0.2,0.6,0.3c1.4-1.1,2.8-2.2,4.1-3.4c0.7-0.6,1.2-1.4,1.8-2.1c1.4-1.6,1.8-3.3,1.7-5.6
			c-0.6-7.2,2.5-13.3,7.2-18.5c0.9-1,2.1-1.8,3.1-2.8c1.2-1.1,2.3-1.1,3.1,0.4C171.9,47.9,172.1,48.1,172.3,48.3z M173.1,74.1
			c0-0.2-0.1-0.5-0.1-0.7c-5.4-3.8-5.2-9.5-5.2-15.1c-0.3,0-0.4,0-0.5,0c-3.6,3.9-5.5,8.3-4.4,13.7c0.5,2.6,2.8,4.6,5.2,4.2
			C169.8,75.9,171.5,74.8,173.1,74.1z M175.6,70.9c3.4-5.1,4.4-10.1,3.6-15.5c-0.2-1.3-1.1-1.5-2.2-0.8c-0.4,0.3-0.9,0.7-1.2,1.1
			c-2.6,3.8-3.4,7.9-2.1,12.3C174,69,174.8,69.7,175.6,70.9z"/>
		<path class="st3" d="M141.5,40.3c0-2.6,1.5-4.2,3.9-4.2c2.3,0,3.8,1.5,3.8,3.7c0,2.3-2.3,4.5-4.6,4.6
			C142.6,44.4,141.5,42.9,141.5,40.3z"/>
		<path class="st0" d="M173.1,74.1c-1.7,0.7-3.3,1.8-5,2.1c-2.4,0.4-4.6-1.6-5.2-4.2c-1.1-5.3,0.8-9.8,4.4-13.7c0.1-0.1,0.2,0,0.5,0
			c0,5.6-0.2,11.3,5.2,15.1C173,73.6,173.1,73.8,173.1,74.1z"/>
		<path class="st0" d="M175.6,70.9c-0.8-1.2-1.6-1.9-1.8-2.8c-1.3-4.4-0.5-8.5,2.1-12.3c0.3-0.4,0.7-0.8,1.2-1.1
			c1-0.7,2-0.5,2.2,0.8C180,60.8,179,65.8,175.6,70.9z"/>
	</g>
	<g>
		<g>
			<g>
				
					<linearGradient id="SVGID_3_" gradientUnits="userSpaceOnUse" x1="11.6524" y1="50" x2="66.3184" y2="50" gradientTransform="matrix(1 0 0 -1 0 100)">
					<stop  offset="0" style="stop-color:#4CB6CB"/>
					<stop  offset="1" style="stop-color:#384055"/>
				</linearGradient>
				<path class="st4" d="M23.8,87.3c0-6.2,0-12.1,0-17.8c-1.5-0.3-2.8-0.5-4-0.9c-4.8-1.5-8.1-5.7-8.1-10.8
					c-0.1-10.1-0.2-20.2,0-30.3C11.8,18.9,19.3,12,28,12.8c2.6,0.2,5.3,1.3,7.6,2.6c7.8,4.2,15.3,8.7,23,13.1
					c0.8,0.5,1.7,0.9,2.5,1.5c7.4,4.8,7,15.5-0.7,20C53.2,54,46.1,58,39,62c-1.6,0.9-3.2,1.9-4.9,2.8c-0.8,0.4-1.1,1-1,1.8
					c0.1,4.7,0,9.4,0,14c0,0.9-0.2,1.5-1.1,2C29.4,84.1,26.8,85.6,23.8,87.3z M33.1,54.6c0.7-0.4,1.2-0.6,1.7-0.8
					c6.8-3.9,13.6-7.7,20.4-11.6c2.4-1.3,2.4-3.3,0-4.7c-6-3.5-12-7-18-10.5c-2.4-1.4-4-0.4-4,2.4c0,7.8,0,15.7,0,23.5
					C33.1,53.3,33.1,53.8,33.1,54.6z M25.7,22.3c-2.9,0.9-4.6,2.9-4.6,5.5c0,9.9,0,19.8,0,29.7c0,1.6,0.8,2.3,2.6,2.3
					c0-0.6,0.1-1.2,0.1-1.8c0-8.8,0-17.6,0-26.4C23.8,28.4,23.7,25.3,25.7,22.3z"/>
				<g>
					
						<linearGradient id="SVGID_4_" gradientUnits="userSpaceOnUse" x1="23.7437" y1="47.8351" x2="66.3947" y2="47.8351" gradientTransform="matrix(1 0 0 -1 0 100)">
						<stop  offset="0" style="stop-color:#4CB6CB"/>
						<stop  offset="1" style="stop-color:#384055"/>
					</linearGradient>
					<path class="st5" d="M24,87.3c-0.1-0.7-0.1-1.1-0.1-1.5c-0.1-8.1-0.2-16.1-0.2-24.2c0-10.8,0.1-21.5,0.1-32.3
						c0-6.1,3.2-10.4,8.7-11.9c2.9-0.8,5.7-0.5,8.3,1C47.4,22.3,54,26,60.5,29.8c7.8,4.5,8,15.5,0.2,20.1
						c-8.1,4.8-27.5,16.2-27.5,16.2c0,4.9,0,9.8,0,14.7c0,1-0.3,1.6-1.2,2C29.4,84.2,26.9,85.7,24,87.3z M33.2,41.4
						C33.2,41.4,33.1,41.4,33.2,41.4c0,1.1,0,2.2,0,3.3c0,3.2,0,6.3,0,9.5c0,0.4,3.2-1,4.1-1.5c6-3.5,12-6.9,18.1-10.3
						c2.2-1.2,2.2-3.3,0-4.6c-6.2-3.6-12.3-7.2-18.5-10.7c-2.1-1.2-3.7-0.2-3.8,2.2C33.1,33.3,33.2,37.3,33.2,41.4z"/>
				</g>
			</g>
		</g>
	</g>
</g>
</svg>
