<?xml version="1.0" encoding="utf-8"?>
<!-- Generator: Adobe Illustrator 23.0.2, SVG Export Plug-In . SVG Version: 6.00 Build 0)  -->
<svg version="1.1" id="Layer_1" xmlns="http://www.w3.org/2000/svg" xmlns:xlink="http://www.w3.org/1999/xlink" x="0px" y="0px"
	 viewBox="0 0 16.3 16.3" style="enable-background:new 0 0 16.3 16.3;" xml:space="preserve">
<style type="text/css">
	.st0{fill:#FCFCFC;}
</style>
<g id="plus" transform="translate(-279 430.165)">
	<g id="Group_74" transform="translate(13 13)">
		<path id="Path_32" class="st0" d="M274.1-443.2c-0.5,0-0.9,0.4-0.9,0.9l0,0v6.4h-6.4c-0.5,0-0.9,0.4-0.9,0.9s0.4,0.9,0.9,0.9h6.4
			v6.4c0,0.5,0.4,0.9,0.9,0.9c0.5,0,0.9-0.4,0.9-0.9v-6.4h6.4c0.5,0,0.9-0.4,0.9-0.9s-0.4-0.9-0.9-0.9H275v-6.4
			C275-442.8,274.6-443.2,274.1-443.2C274.1-443.2,274.1-443.2,274.1-443.2z"/>
	</g>
</g>
</svg>
