<svg xmlns="http://www.w3.org/2000/svg" viewBox="936.3 20 15.333 23"><defs><style>.a{fill:#888;}</style></defs><g transform="translate(1161.301 118)"><g transform="translate(-225 -98)"><path class="a" d="M33.667,966.362a4.8,4.8,0,0,0-4.792,4.792v7.028a4.792,4.792,0,1,0,9.583,0v-7.028A4.8,4.8,0,0,0,33.667,966.362Zm0,1.278a3.492,3.492,0,0,1,3.514,3.514v7.028a3.514,3.514,0,1,1-7.028,0v-7.028A3.492,3.492,0,0,1,33.667,967.64Zm-7.018,6.708A.665.665,0,0,0,26,975v3.194a7.657,7.657,0,0,0,7.028,7.637v2.256H30.472a.639.639,0,1,0,0,1.278h6.389a.639.639,0,1,0,0-1.278H34.305v-2.256a7.657,7.657,0,0,0,7.028-7.637V975a.639.639,0,1,0-1.278,0v3.194a6.389,6.389,0,0,1-12.778,0V975a.664.664,0,0,0-.629-.649Z" transform="translate(-26 -966.362)"/></g></g></svg>