<?xml version="1.0" encoding="iso-8859-1"?>
<!-- Generator: Adobe Illustrator 19.0.0, SVG Export Plug-In . SVG Version: 6.00 Build 0)  -->
<svg version="1.1" id="Capa_1" xmlns="http://www.w3.org/2000/svg" xmlns:xlink="http://www.w3.org/1999/xlink" x="0px" y="0px"
	 viewBox="0 0 511.997 511.997" style="enable-background:new 0 0 511.997 511.997;" xml:space="preserve">
<g>
	<g>
		<path d="M467.938,87.164L387.063,5.652c-7.438-7.495-19.531-7.54-27.02-0.108s-7.54,19.525-0.108,27.014l67.471,68.006
			l-67.42,67.42c-7.464,7.457-7.464,19.557,0,27.014c3.732,3.732,8.616,5.598,13.507,5.598s9.781-1.866,13.513-5.591l80.876-80.876
			C475.325,106.689,475.345,94.634,467.938,87.164z"/>
	</g>
</g>
<g>
	<g>
		<path d="M455.005,81.509H56.995c-10.552,0-19.104,8.552-19.104,19.104v147.741c0,10.552,8.552,19.104,19.104,19.104
			c10.552,0,19.104-8.552,19.104-19.104V119.718h378.905c10.552,0,19.104-8.552,19.104-19.104
			C474.109,90.062,465.557,81.509,455.005,81.509z"/>
	</g>
</g>
<g>
	<g>
		<path d="M83.964,411.431l67.42-67.413c7.457-7.457,7.464-19.55,0-27.014c-7.463-7.464-19.563-7.464-27.02,0l-80.876,80.869
			c-7.444,7.438-7.47,19.493-0.057,26.963l80.876,81.512c3.738,3.764,8.654,5.649,13.564,5.649c4.865,0,9.731-1.847,13.456-5.54
			c7.489-7.432,7.54-19.525,0.108-27.02L83.964,411.431z"/>
	</g>
</g>
<g>
	<g>
		<path d="M454.368,238.166c-10.552,0-19.104,8.552-19.104,19.104v135.005H56.995c-10.552,0-19.104,8.552-19.104,19.104
			c0,10.552,8.552,19.104,19.104,19.104h397.38c10.552,0,19.104-8.552,19.098-19.104V257.271
			C473.472,246.719,464.92,238.166,454.368,238.166z"/>
	</g>
</g>
<g>
</g>
<g>
</g>
<g>
</g>
<g>
</g>
<g>
</g>
<g>
</g>
<g>
</g>
<g>
</g>
<g>
</g>
<g>
</g>
<g>
</g>
<g>
</g>
<g>
</g>
<g>
</g>
<g>
</g>
</svg>
