<svg xmlns="http://www.w3.org/2000/svg" viewBox="-573.5 537.451 24 21.822"><defs><style>.a{stroke:#000;}</style></defs><g transform="translate(-587.15 538)"><g transform="translate(14.15 0)"><path class="a" d="M163.144,68.32H151.537l1.608-1.368a.465.465,0,0,0,0-.735.686.686,0,0,0-.864,0l-2.651,2.256a.465.465,0,0,0,0,.735l2.651,2.256a.693.693,0,0,0,.869,0,.465.465,0,0,0,0-.735l-1.608-1.368h11.607a2.383,2.383,0,0,0,2.546-2.166V55.266a2.383,2.383,0,0,0-2.546-2.166h-1.692a.529.529,0,1,0,0,1.045h1.692a1.239,1.239,0,0,1,1.323,1.126V67.2A1.246,1.246,0,0,1,163.144,68.32Z" transform="translate(-142.695 -50.844)"/><path class="a" d="M27.56.153a.686.686,0,0,0-.864,0,.465.465,0,0,0,0,.735L28.3,2.256H16.7A2.383,2.383,0,0,0,14.15,4.422V16.35A2.383,2.383,0,0,0,16.7,18.517h1.692a.529.529,0,1,0,0-1.045H16.7a1.239,1.239,0,0,1-1.323-1.126V4.422A1.239,1.239,0,0,1,16.7,3.3H28.3L26.7,4.664a.465.465,0,0,0,0,.735.693.693,0,0,0,.869,0l2.651-2.256a.47.47,0,0,0,0-.739Z" transform="translate(-14.15 0)"/></g></g></svg>