<svg xmlns="http://www.w3.org/2000/svg" viewBox="-578.5 442.462 15.516 14.148"><defs><style>.a{fill:#358595;stroke:#358595;}</style></defs><g transform="translate(-578 443)"><path class="a" d="M158.093,62.706h-7.326l1.015-.863a.294.294,0,0,0,0-.464.433.433,0,0,0-.545,0L149.563,62.8a.294.294,0,0,0,0,.464l1.673,1.424a.438.438,0,0,0,.548,0,.294.294,0,0,0,0-.464l-1.015-.863H158.1A1.5,1.5,0,0,0,159.7,62V54.467A1.5,1.5,0,0,0,158.1,53.1h-1.068a.334.334,0,1,0,0,.66H158.1a.782.782,0,0,1,.835.71V62A.787.787,0,0,1,158.093,62.706Z" transform="translate(-145.187 -51.676)"/><path class="a" d="M22.613.1a.433.433,0,0,0-.545,0,.294.294,0,0,0,0,.464l1.015.863H15.757A1.5,1.5,0,0,0,14.15,2.791v7.528a1.5,1.5,0,0,0,1.607,1.367h1.068a.334.334,0,1,0,0-.66H15.757a.782.782,0,0,1-.835-.71V2.791a.782.782,0,0,1,.835-.71h7.326l-1.015.863a.294.294,0,0,0,0,.464.438.438,0,0,0,.548,0l1.673-1.424a.3.3,0,0,0,0-.466Z" transform="translate(-14.15 0)"/></g></svg>