<svg xmlns="http://www.w3.org/2000/svg" viewBox="-533 1502 31.9 31.9"><defs><style>.a{fill:#f1f1f1;}.b{fill:#888;stroke:#888;}</style></defs><g transform="translate(-554 1008)"><circle class="a" cx="15.95" cy="15.95" r="15.95" transform="translate(21 494)"/><g transform="translate(166.348 564.803)"><path class="b" d="M18.986,17.726a.532.532,0,0,0-.641,0,.338.338,0,0,0,0,.537l1.554,1.3H18.46c-2.206,0-3.651-1.588-5.142-3.331,1.49-1.742,2.935-3.331,5.142-3.331H19.9l-1.554,1.3a.338.338,0,0,0,0,.537.518.518,0,0,0,.641,0L21.065,13a.6.6,0,0,0,0-.953L18.986,10.3a.532.532,0,0,0-.641,0,.338.338,0,0,0,0,.537l1.554,1.3H18.46c-2.557,0-4.184,1.681-5.7,3.439-1.514-1.757-3.141-3.439-5.7-3.439H5.453a.385.385,0,1,0,0,.759H7.063c2.207,0,3.652,1.589,5.142,3.331-1.49,1.742-2.935,3.331-5.142,3.331H5.453a.385.385,0,1,0,0,.759H7.063c2.557,0,4.185-1.681,5.7-3.439,1.514,1.757,3.141,3.439,5.7,3.439H19.9l-1.554,1.3a.338.338,0,0,0,0,.537.518.518,0,0,0,.642,0l2.079-1.74a.6.6,0,0,0,0-.953Z" transform="translate(-143 -71)"/></g></g></svg>