<?xml version="1.0" encoding="utf-8"?>
<!-- Generator: Adobe Illustrator 23.0.2, SVG Export Plug-In . SVG Version: 6.00 Build 0)  -->
<svg version="1.1" id="Layer_1" xmlns="http://www.w3.org/2000/svg" xmlns:xlink="http://www.w3.org/1999/xlink" x="0px" y="0px"
	 viewBox="0 0 100 125" style="enable-background:new 0 0 100 125;" xml:space="preserve">
<style type="text/css">
	.st0{fill:#4CB6CB;}
</style>
<title>Artboard 18</title>
<path class="st0" d="M7.6,97.7v10.5c0,1.4,1.1,2.5,2.5,2.5h32.3c1.4,0,2.5-1.1,2.5-2.5s-1.1-2.5-2.5-2.5H12.6v-8
	c0-4.5,2.7-8.6,6.8-10.4l23-10c0.9-0.4,1.5-1.3,1.5-2.3V67c0-0.9-0.3-1.7-0.8-2.5c-2.1-3-3.3-6.4-3.7-10c-0.1-0.7-0.5-1.4-1-1.8
	c-2.2-1.6-3.6-4.1-3.6-6.9c0-0.5,0.2-1,0.6-1.3c0.4-0.3,0.9-0.5,1.4-0.5c1.4,0.1,2.5-1,2.6-2.4c0,0,0,0,0-0.1l0.1-7.6
	c0-1.7,0.3-3.4,0.9-5c1.9-4.8,6.7-9.8,12.8-9.8h1.6V22c0,1.3,1,2.4,2.3,2.5c3.8,0.6,7.3,2.7,9.4,5.9c1,1.3,1.5,2.9,1.5,4.5v6.6
	c0,1.4,1.1,2.5,2.5,2.5l0,0c0.5,0,1,0.2,1.3,0.5c0.3,0.3,0.5,0.8,0.5,1.3c0,2.7-1.3,5.2-3.5,6.8c-0.6,0.4-0.9,1-1,1.7
	c-0.4,3.7-1.7,7.3-3.9,10.3c-0.8,1.1-0.6,2.7,0.5,3.5c1.1,0.8,2.7,0.6,3.5-0.5l0,0c2.5-3.5,4.1-7.5,4.7-11.7
	c2.9-2.5,4.6-6.2,4.7-10.1c0-1.8-0.7-3.6-2-4.8c-0.7-0.7-1.5-1.2-2.3-1.5V35c0-2.7-0.8-5.3-2.4-7.5c-2.6-3.7-6.4-6.4-10.7-7.6v-3.2
	c0-1.4-1.1-2.5-2.5-2.5h-4.1c-8.4,0-14.9,6.6-17.5,12.8c-0.9,2.2-1.3,4.5-1.3,6.8l-0.1,5.6c-0.9,0.3-1.7,0.8-2.4,1.5
	c-1.3,1.3-2.1,3.1-2.1,4.9c0,4,1.8,7.7,4.8,10.3c0.6,4,2.1,7.8,4.4,11.1v6.2l-21.5,9.3C11.5,85.3,7.6,91.2,7.6,97.7z"/>
<g>
	<path class="st0" d="M83.5,72.3L83.5,72.3c0-0.1-0.1-0.3-0.1-0.3v-0.1c0-0.1-0.1-0.1-0.3-0.3c-0.1-0.1-0.1-0.1-0.3-0.1l0,0
		c-0.1,0-0.3-0.1-0.3-0.1c-0.1,0-0.1,0-0.3,0s-0.3,0-0.4,0h-0.1l-19,5.5h-0.1c-0.1,0-0.4,0.1-0.4,0.3l-0.1,0.1
		c-0.1,0-0.1,0.1-0.1,0.3l-0.1,0.1c0,0.1,0,0.1-0.1,0.3c0,0.1,0,0.1,0,0.3v19.1c-1.1-0.8-2.6-1.4-4.1-1.4c-3.8,0-6.8,3-6.8,6.8
		c0,3.8,3,6.8,6.8,6.8s6.8-3,6.8-6.8V86.1l16.4-4.6v10.4c-1.1-0.8-2.6-1.4-4.1-1.4c-3.8,0-6.8,3-6.8,6.8s3,6.8,6.8,6.8
		s6.8-3,6.8-6.8V72.7C83.5,72.6,83.5,72.5,83.5,72.3z M57.6,106.9c-2.3,0-4.1-1.9-4.1-4.1c0-2.3,1.8-4.1,4.1-4.1s4.1,1.8,4.1,4.1
		C61.7,105,59.9,106.9,57.6,106.9z M76.7,101.4c-2.3,0-4.1-1.9-4.1-4.1c0-2.3,1.8-4.1,4.1-4.1c2.3,0,4.1,1.8,4.1,4.1
		C80.8,99.5,79,101.4,76.7,101.4z M80.8,78.6l-16.4,4.6v-4l16.4-4.6V78.6z"/>
</g>
</svg>
