<?xml version="1.0" encoding="utf-8"?>
<!-- Generator: Adobe Illustrator 23.0.2, SVG Export Plug-In . SVG Version: 6.00 Build 0)  -->
<svg version="1.1" id="Layer_1" xmlns="http://www.w3.org/2000/svg" xmlns:xlink="http://www.w3.org/1999/xlink" x="0px" y="0px"
	 viewBox="0 0 100 125" style="enable-background:new 0 0 100 125;" xml:space="preserve">
<style type="text/css">
	.st0{fill:#4CB6CB;}
</style>
<path class="st0" d="M96.6,35.5c-4.9-11-15.4-18.1-26.8-18.1c-9.7,0-16,3.8-19.8,7.2c-3.8-3.4-10.2-7.2-19.8-7.2
	c-11.4,0-21.9,7.1-26.8,18.1c-5.1,11.5-3,24.2,5.8,34.1c18.3,20.6,34.7,35.3,35.4,36c1.5,1.3,3.4,2.1,5.5,2.1c2,0,3.9-0.7,5.5-2.1
	c0.7-0.6,17-15.4,35.3-36C99.6,59.7,101.8,47,96.6,35.5z M30.2,25.2c8.9,0,14,4.1,16.8,7.5l3.1,3.8l3.1-3.8
	c2.7-3.4,7.9-7.5,16.8-7.5c8.2,0,15.9,5.3,19.6,13.5c3.8,8.6,2.1,18.1-4.5,25.6C66.4,85.1,50.4,99.5,50.2,99.7
	c-0.1,0.1-0.3,0.1-0.4,0c-0.2-0.2-16.4-14.8-34.7-35.3c-6.7-7.5-8.4-17-4.5-25.6C14.2,30.5,21.9,25.2,30.2,25.2z"/>
</svg>
