<?xml version="1.0" encoding="UTF-8"?>
<svg enable-background="new 0 0 1024 1280" version="1.1" viewBox="0 0 1024 1280" xml:space="preserve" xmlns="http://www.w3.org/2000/svg">
<style type="text/css">
	.st0{fill:#4CB6CB;}
</style>
		<path class="st0" d="m717.7 672c-0.8 2.1-1.5 4.1-2.3 6.1l-1.2 3c1-2.2 1-2.3 0.1-0.2-1.6 3.5-3.2 7-4.9 10.5-3.7 7.5-7.8 14.7-12.3 21.7-2.4 3.8-4.9 7.5-7.5 11.2-1 1.4-2 2.7-3 4.1-1.4 1.8-1.4 1.8 0 0-0.7 0.9-1.4 1.8-2.1 2.7-5.4 6.7-11.2 13.1-17.3 19.2s-12.5 11.9-19.2 17.3l-2.7 2.1c1.8-1.4 1.8-1.4 0 0-1.4 1-2.7 2-4.1 3-3.6 2.6-7.4 5.1-11.2 7.5-7 4.5-14.3 8.6-21.7 12.3-3.5 1.7-7 3.3-10.5 4.9-2.1 0.9-2 0.9 0.2-0.1l-3 1.2c-2 0.8-4.1 1.6-6.1 2.3-6.7 2.5-12 6.8-14 14-1.9 6.9 0.1 14.4 5.1 19.5l51.7 51.7 82.7 82.7 18.9 18.9c6.1 6.1 16.8 7.8 24.2 3.1 60.6-38 112-89.4 150-150 4.7-7.5 3-18.1-3.1-24.2l-51.7-51.7-82.7-82.7-18.9-18.9c-7.4-7.4-21-8-28.3 0s-7.9 20.4 0 28.3l51.7 51.7 82.7 82.7 18.9 18.9c-1-8.1-2.1-16.2-3.1-24.2-4.4 7-8.9 13.8-13.6 20.5-2.4 3.4-4.8 6.7-7.3 10-0.4 0.6-4.9 6.4-2.3 3-1.1 1.4-2.2 2.8-3.3 4.2-10.5 13.2-21.8 25.8-33.7 37.7s-24.5 23.2-37.7 33.7l-4.2 3.3c3.3-2.6-2.4 1.8-3 2.3-3.3 2.5-6.7 4.9-10 7.3-6.7 4.7-13.6 9.3-20.5 13.6 8.1 1 16.2 2.1 24.2 3.1l-51.7-51.7-82.7-82.7-18.9-18.9c-2.9 11.1-5.9 22.3-8.8 33.4 36-13.3 68.8-33.7 96-60.8s47.6-60 60.8-96c3.6-9.8-4.1-22.3-14-24.6-11.3-2.6-20.7 3.4-24.6 14z"/>
		<path class="st0" d="m356 439.1c6.1-6.1 12.5-11.9 19.2-17.3l2.7-2.1c-1.8 1.4-1.8 1.4 0 0 1.8-1.3 3.6-2.7 5.5-4 3.2-2.3 6.5-4.5 9.8-6.6 7-4.5 14.3-8.6 21.7-12.3 3.5-1.7 7-3.3 10.5-4.9 2.1-0.9 2-0.9-0.2 0.1l3-1.2c2-0.8 4.1-1.6 6.1-2.3 6.7-2.5 12-6.8 14-14 1.9-6.9-0.1-14.4-5.1-19.5l-51.7-51.7-82.7-82.7-18.9-18.9c-6.1-6.1-16.8-7.8-24.2-3.1-55.6 34.8-103.5 81-140.4 135.3-33.2 48.8-56.9 104.5-69.2 162.2-12.4 58.3-13.5 117.9-3.9 176.5 9.5 57.7 30.4 113.8 60.8 163.8 34.1 55.9 79.9 104.2 133.5 141.6 6.3 4.4 12.6 8.6 19.1 12.6 7.5 4.7 18.1 3 24.2-3.1l51.7-51.7 82.7-82.7 18.9-18.9c5-5 7-12.6 5.1-19.5-2-7.2-7.3-11.5-14-14-1.5-0.6-3.1-1.1-4.6-1.7-1-0.4-2-0.8-3.1-1.2-0.3-0.1-2.9-1.2-0.6-0.3 2.2 0.9-0.3-0.1-0.6-0.3-0.8-0.3-1.5-0.7-2.3-1-1.8-0.8-3.5-1.6-5.2-2.4-6.7-3.2-13.3-6.8-19.7-10.6-6.2-3.8-12.3-7.8-18.2-12.1-1-0.7-5.1-3.9-2-1.5-1.3-1.1-2.7-2.1-4-3.2-3.1-2.5-6.1-5.2-9.1-7.8-5.6-5-10.9-10.4-16-15.9-2.5-2.7-5-5.6-7.4-8.4-1.1-1.3-2.2-2.6-3.2-4-0.5-0.7-1.1-1.3-1.6-2 1.7 2.2 0.5 0.7-0.5-0.7-8.7-11.6-16.2-24-22.7-37.1-1.6-3.2-3.1-6.5-4.5-9.7-1.6-3.6 0.9 2.3-0.5-1.3-0.8-2-1.6-4.1-2.4-6.1-2.7-7.3-5.1-14.8-7.1-22.4-2.1-7.9-3.8-15.9-5.1-23.9-0.1-0.9-0.3-1.8-0.4-2.7 0-0.3-0.4-3.3-0.1-0.9 0.3 2.3-0.1-0.7-0.1-0.9l-0.3-2.7c-0.4-4.2-0.8-8.4-1-12.6-0.4-7.8-0.4-15.6-0.1-23.5 0.2-3.9 0.4-7.8 0.8-11.7l0.6-5.4c0.4-4 0.1-0.9 0-0.1 0.2-1.2 0.3-2.4 0.5-3.6 2.5-15.8 6.5-31.4 12-46.4 0.7-1.8 1.3-3.6 2.1-5.4 0.3-0.8 0.6-1.5 0.9-2.3 1.1-2.8-1.3 2.9-0.1 0.2 1.7-3.8 3.4-7.5 5.2-11.2 3.7-7.5 7.8-14.7 12.3-21.7 2.3-3.6 4.6-7 7-10.5 1.1-1.6 2.3-3.2 3.5-4.8 0.2-0.2 1.9-2.5 0.5-0.7s0.8-1 1.1-1.3c5.6-6.8 11.5-13.4 17.8-19.8 7.4-7.4 8-21 0-28.3s-20.4-7.9-28.3 0c-48.5 48.9-76.4 115.8-76.1 184.8 0.3 68.7 28.4 135.9 77.4 184.2 27 26.6 59.3 46.5 94.7 59.6-2.9-11.1-5.9-22.3-8.8-33.4l-51.7 51.7-82.7 82.7-18.9 18.9c8.1-1 16.2-2.1 24.2-3.1-6.5-4-12.8-8.2-19.1-12.6-2.9-2-5.8-4.1-8.6-6.2-1.4-1.1-2.9-2.1-4.3-3.2-0.7-0.5-1.4-1.1-2.1-1.6-2.5-1.9 2.3 1.8-0.2-0.1-12.2-9.7-24.1-19.9-35.3-30.7-11.1-10.7-21.6-22-31.6-33.7-2.5-3-5-6-7.4-9-1.1-1.4-2.2-2.8-3.3-4.2-1.4-1.8 0.2 0.3 0.4 0.5-0.7-0.9-1.4-1.9-2.2-2.8-4.6-6.1-9.1-12.4-13.4-18.7-8-11.9-15.5-24.2-22.3-36.8-3.4-6.2-6.6-12.6-9.7-19-1.4-2.9-2.8-5.9-4.1-8.9-0.7-1.5-1.3-3-2-4.5-0.3-0.7-0.7-1.5-1-2.2-0.2-0.5-2-4.7-0.9-2.1 0.9 2.2-0.9-2.2-1.2-2.9l-1.8-4.5c-1.3-3.3-2.5-6.6-3.7-9.9-2.4-6.6-4.7-13.2-6.8-19.9-4.1-13.1-7.6-26.3-10.5-39.7-1.5-6.8-2.8-13.7-3.9-20.5-0.5-3.2-1-6.3-1.5-9.5-0.1-0.8-0.3-1.6-0.3-2.4 0.1 4.3 0.2 1.6 0.1 0.5-0.2-1.9-0.5-3.7-0.7-5.6-1.6-13.5-2.5-27.1-2.8-40.7-0.3-13.9 0-27.8 1-41.6 0.5-6.7 1.1-13.3 1.8-19.9l0.6-4.8c0.7-5.2-0.3 1.9 0.2-1.8 0.5-3.4 1-6.9 1.6-10.3 4.5-27.3 11.6-54.2 21.1-80.2 1.1-3 2.3-6.1 3.4-9.1l1.8-4.5c0.4-1.1 2.9-6.9 1.1-2.7 2.7-6.3 5.5-12.5 8.4-18.6 6.2-12.8 13-25.4 20.4-37.6 7.7-12.7 16.1-25.1 25-36.9 0.7-0.9 3.2-4.2 1.2-1.6 1.1-1.4 2.2-2.8 3.3-4.2 2.6-3.3 5.3-6.5 8-9.7 5-6 10.2-11.8 15.6-17.5 10.6-11.3 21.7-22 33.4-32.1 5.9-5.1 11.9-10 18-14.8 1.8-1.4-0.3 0.2-0.5 0.4 0.7-0.5 1.4-1.1 2.1-1.6 1.4-1.1 2.8-2.1 4.3-3.2 3.1-2.3 6.2-4.5 9.3-6.7 6.3-4.4 12.6-8.6 19.1-12.6-8.1-1-16.2-2.1-24.2-3.1l51.7 51.7 82.7 82.7 18.9 18.9c2.9-11.1 5.9-22.3 8.8-33.4-36.1 13.3-68.6 33.7-96 60.8-7.4 7.4-7.9 21 0 28.3 8.1 6.9 20.4 7.4 28.3-0.5z"/>
		<path class="st0" d="m841.1 265.2c-25.3-25.1-53.4-47.5-83.6-66.4-7.5-4.7-18.1-3-24.2 3.1l-51.7 51.7-82.7 82.7-18.9 18.9c-5 5-7 12.6-5.1 19.5 2 7.2 7.3 11.5 14 14 2.1 0.8 4.1 1.5 6.1 2.3l3 1.2c-2.2-1-2.3-1-0.2-0.1 3.5 1.6 7 3.2 10.5 4.9 7.5 3.7 14.7 7.8 21.7 12.3 3.8 2.4 7.5 4.9 11.2 7.5 1.4 1 2.7 2 4.1 3 1.8 1.4 1.8 1.4 0 0l2.7 2.1c6.7 5.4 13.1 11.2 19.2 17.3s11.9 12.5 17.3 19.2c0.7 0.9 1.4 1.8 2.1 2.7-1.4-1.8-1.4-1.8 0 0 1 1.4 2 2.7 3 4.1 2.6 3.6 5.1 7.4 7.5 11.2 4.5 7 8.6 14.3 12.3 21.7 1.7 3.5 3.3 7 4.9 10.5 0.9 2.1 0.9 2-0.1-0.2l1.2 3c0.8 2 1.6 4.1 2.3 6.1 2.5 6.7 6.8 12 14 14 6.9 1.9 14.4-0.1 19.5-5.1l51.7-51.7 82.7-82.7 18.9-18.9c6.1-6.1 7.8-16.8 3.1-24.2-19-30.3-41.3-58.5-66.5-83.7-7.4-7.4-21-7.9-28.3 0-7.3 8-7.9 20.4 0 28.3 11.9 12 23.2 24.5 33.7 37.7 1.1 1.4 2.2 2.8 3.3 4.2-2.6-3.4 1.8 2.4 2.3 3 2.5 3.3 4.9 6.7 7.3 10 4.7 6.7 9.3 13.6 13.6 20.5 1-8.1 2.1-16.2 3.1-24.2l-51.7 51.7-82.7 82.7-18.9 18.9c11.1 2.9 22.3 5.9 33.4 8.8-13.3-36-33.7-68.8-60.8-96-27.2-27.2-60-47.6-96-60.8 2.9 11.1 5.9 22.3 8.8 33.4l51.7-51.7 82.7-82.7 18.9-18.9c-8.1 1-16.2 2.1-24.2 3.1 7 4.4 13.8 8.9 20.5 13.6 3.4 2.4 6.7 4.8 10 7.3 0.5 0.4 5.2 4 3.6 2.7-1.6-1.2 3.1 2.4 3.6 2.8 13.2 10.5 25.7 21.8 37.7 33.7 7.4 7.4 21 8 28.3 0 7.4-7.8 8-20.2 0.1-28.1z"/>
		<path class="st0" d="m737.3 956.1c-13.7 8.5-27.9 16.4-42.5 23.4-3.7 1.8-7.4 3.5-11.1 5.2-1.5 0.7-3 1.3-4.5 2-1 0.4-2 0.9-3 1.3 2.5-1.1 1.4-0.6-0.5 0.2-7.3 3-14.6 5.8-22 8.4-15 5.2-30.3 9.7-45.7 13.3-7.8 1.8-15.7 3.4-23.6 4.8-3.7 0.7-7.4 1.3-11.1 1.8-1.8 0.3-3.7 0.8-5.6 0.8 0.6 0 4.4-0.6 0.5-0.1-1.1 0.1-2.1 0.3-3.2 0.4-31.3 3.8-63 4.2-94.3 1.3-4-0.4-8-0.8-12-1.3-1.9-0.2-3.7-0.4-5.6-0.7 0.2 0 3.7 0.5 1.3 0.2-1.3-0.2-2.6-0.4-4-0.6-7.9-1.2-15.9-2.6-23.7-4.2-15.5-3.2-30.9-7.2-46-12-8.5-2.7-16.9-5.7-25.2-8.9l-6-2.4c-1.4-0.6-6.6-2.7-2.7-1.1-4.2-1.8-8.5-3.7-12.7-5.6-16.7-7.7-32.8-16.5-48.4-26.2 1.3 10.5 2.7 20.9 4 31.4l51.7-51.7 82.7-82.7 18.9-18.9-19.5 5.1c56.2 20.3 119.6 20.3 175.8 0l-19.5-5.1 51.7 51.7 82.7 82.7 18.9 18.9c7.4 7.4 21 8 28.3 0s7.9-20.4 0-28.3l-51.7-51.7-82.7-82.7-18.9-18.9c-4.7-4.7-12.9-7.5-19.5-5.1-13.1 4.7-26.6 8.4-40.3 10.9-1.5 0.3-3 0.5-4.5 0.7-0.6 0.1-6 0.8-3.6 0.5 2.7-0.3-2.2 0.2-2.7 0.3-1.8 0.2-3.6 0.4-5.4 0.5-6.9 0.6-13.8 0.9-20.7 0.9-6.6 0-13.2-0.3-19.8-0.8-3.3-0.3-6.6-0.6-9.9-1 4.4 0.5-0.9-0.1-1.8-0.3-1.8-0.3-3.6-0.6-5.4-0.9-13.7-2.4-27.2-6.1-40.3-10.9-6.6-2.4-14.7 0.4-19.5 5.1l-51.7 51.7-82.7 82.7-18.9 18.9c-9.3 9.3-6.8 24.6 4 31.4 58.2 36.2 123.7 58.5 191.6 66.8 65.4 8 132.9 1.5 195.6-18.5 36.6-11.7 72-27.9 104.6-48.2 8.9-5.5 13.1-18.1 7.2-27.4-5.4-8.8-17.6-13-27.1-7.1z"/>
		<path class="st0" d="m904.4 816.4l-51.7-51.7-82.7-82.7-18.9-18.9c1.7 6.5 3.4 13 5.1 19.5 20.3-56.2 20.3-119.6 0-175.8-1.7 6.5-3.4 13-5.1 19.5l51.7-51.7 82.7-82.7 18.9-18.9c-10.5-1.3-20.9-2.7-31.4-4 8.5 13.7 16.4 27.9 23.4 42.5 1.8 3.7 3.5 7.4 5.2 11.1 0.7 1.5 1.3 3 2 4.5 0.4 1 0.9 2 1.3 3-1.1-2.5-0.6-1.4 0.2 0.5 3 7.3 5.8 14.6 8.4 22 5.2 15 9.7 30.3 13.3 45.7 1.8 7.8 3.4 15.7 4.8 23.6 0.7 3.7 1.3 7.4 1.8 11.1 0.3 1.8 0.8 3.7 0.8 5.6 0-0.6-0.6-4.4-0.1-0.5 0.1 1.1 0.3 2.1 0.4 3.2 3.8 31.3 4.2 63 1.3 94.3-0.4 4-0.8 8-1.3 12-0.2 1.9-0.4 3.7-0.7 5.6 0-0.2 0.5-3.7 0.2-1.3-0.2 1.3-0.4 2.6-0.6 4-1.2 7.9-2.6 15.9-4.2 23.7-3.2 15.5-7.2 30.9-12 46-2.7 8.5-5.7 16.9-8.9 25.2l-2.4 6c-0.6 1.4-2.7 6.6-1.1 2.7-1.8 4.2-3.7 8.5-5.6 12.7-7.7 16.7-16.5 32.8-26.2 48.4-5.5 8.9-2.2 22.4 7.2 27.4 9.8 5.2 21.5 2.3 27.4-7.2 36.2-58.2 58.5-123.7 66.8-191.6 8-65.4 1.5-132.9-18.5-195.6-11.7-36.6-27.9-72-48.2-104.6-6.8-10.9-22.1-13.4-31.4-4l-51.7 51.7-82.7 82.7-18.9 18.9c-4.7 4.7-7.5 12.9-5.1 19.5 4.7 13.1 8.4 26.6 10.9 40.3 0.3 1.5 0.5 3 0.7 4.5 0.1 0.6 0.8 6 0.5 3.6-0.3-2.7 0.2 2.2 0.3 2.7 0.2 1.8 0.4 3.6 0.5 5.4 0.6 6.9 0.9 13.8 0.9 20.7 0 6.6-0.3 13.2-0.8 19.8-0.3 3.3-0.6 6.6-1 9.9 0.5-4.4-0.1 0.9-0.3 1.8l-0.9 5.4c-2.4 13.7-6.1 27.2-10.9 40.3-2.4 6.6 0.4 14.7 5.1 19.5l51.7 51.7 82.7 82.7 18.9 18.9c7.4 7.4 21 8 28.3 0 7.2-8.3 7.8-20.7-0.1-28.6z"/>
		<path class="st0" d="m733.3 201.9l-51.7 51.7-82.7 82.7-18.9 18.9 19.5-5.1c-56.2-20.3-119.6-20.3-175.8 0l19.5 5.1-51.7-51.7-82.7-82.7-18.9-18.9c-1.3 10.5-2.7 20.9-4 31.4 13.7-8.5 27.9-16.4 42.5-23.4 3.7-1.8 7.4-3.5 11.1-5.2 1.5-0.7 3-1.3 4.5-2 1-0.4 2-0.9 3-1.3-2.5 1.1-1.4 0.6 0.5-0.2 7.3-3 14.6-5.8 22-8.4 15-5.2 30.3-9.7 45.7-13.3 7.8-1.8 15.7-3.4 23.6-4.8 3.7-0.7 7.4-1.3 11.1-1.8 1.8-0.3 3.7-0.8 5.6-0.8-0.6 0-4.4 0.6-0.5 0.1 1.1-0.1 2.1-0.3 3.2-0.4 31.3-3.8 63-4.2 94.3-1.3 4 0.4 8 0.8 12 1.3 1.9 0.2 3.7 0.4 5.6 0.7-0.2 0-3.7-0.5-1.3-0.2 1.3 0.2 2.6 0.4 4 0.6 7.9 1.2 15.9 2.6 23.7 4.2 15.5 3.2 30.9 7.2 46 12 8.5 2.7 16.9 5.7 25.2 8.9l6 2.4c1.4 0.6 6.6 2.7 2.7 1.1 4.2 1.8 8.5 3.7 12.7 5.6 16.7 7.7 32.8 16.5 48.4 26.2 8.9 5.5 22.4 2.2 27.4-7.2 5.2-9.8 2.3-21.5-7.2-27.4-58.2-36.2-123.7-58.5-191.6-66.8-65.4-8-132.9-1.5-195.6 18.5-36.6 11.7-72 27.9-104.6 48.2-10.9 6.8-13.4 22.1-4 31.4l51.7 51.7 82.7 82.7 18.9 18.9c4.7 4.7 12.9 7.5 19.5 5.1 13.1-4.7 26.6-8.4 40.3-10.9 1.5-0.3 3-0.5 4.5-0.7 0.6-0.1 6-0.8 3.6-0.5-2.7 0.3 2.2-0.2 2.7-0.3 1.8-0.2 3.6-0.4 5.4-0.5 6.9-0.6 13.8-0.9 20.7-0.9 6.6 0 13.2 0.3 19.8 0.8 3.3 0.3 6.6 0.6 9.9 1-4.4-0.5 0.9 0.1 1.8 0.3 1.8 0.3 3.6 0.6 5.4 0.9 13.7 2.4 27.2 6.1 40.3 10.9 6.6 2.4 14.7-0.4 19.5-5.1l51.7-51.7 82.7-82.7 18.9-18.9c7.4-7.4 8-21 0-28.3-8.3-7.2-20.7-7.8-28.6 0.1z"/>
		<path class="st0" d="m717.7 672c-0.9 2.6-2 5.1-2.9 7.7-2 5.1 1.7-3.7-0.5 1.3-0.5 1-0.9 2-1.3 3-2.5 5.5-5.2 11-8.2 16.3-5.6 10.1-11.9 19.5-18.7 28.9-2 2.7 2.9-3.6-0.5 0.7l-2.7 3.3c-1.6 2-3.3 3.9-5 5.9-4.2 4.8-8.6 9.4-13.2 13.8-4.1 4-8.4 7.9-12.8 11.6l-6.6 5.4c3-2.4 0.6-0.5 0 0-1.8 1.3-3.6 2.7-5.5 4-9.1 6.4-18.7 12.2-28.6 17.3-4.9 2.5-9.9 4.8-14.9 7 4.4-1.9-3.2 1.2-4.4 1.7-3.3 1.3-6.6 2.4-10 3.5-11.8 3.9-23.9 6.9-36.1 8.9-1.5 0.2-3 0.5-4.5 0.7-3.9 0.6-0.9 0.1-0.1 0-3 0.4-6 0.7-9 0.9-6.6 0.6-13.2 0.9-19.8 0.9-6 0-12-0.2-18-0.6-3-0.2-6-0.5-9-0.8-1.2-0.1-2.4-0.3-3.6-0.4 4.7 0.6-2.8-0.4-3.6-0.6-11.9-1.9-23.7-4.8-35.3-8.5-5.5-1.8-10.9-3.8-16.3-5.9-5-1.9 2.5 1.1-0.5-0.2-1.3-0.6-2.5-1.1-3.8-1.7-3-1.4-6-2.8-8.9-4.3-9.9-5-19.5-10.7-28.7-17.1-2.3-1.6-4.6-3.3-6.9-5-4.6-3.3 3 2.5-1.3-1l-2.7-2.1c-4.9-4-9.6-8.2-14.2-12.6-4.2-4-8.2-8.2-12.1-12.5-1.9-2.1-3.8-4.3-5.7-6.5-0.7-0.9-1.5-1.8-2.2-2.6-0.7-0.9-1.4-1.8-2.1-2.7-1.2-1.6-1.4-1.8-0.5-0.7 1.8 2.3-1.6-2.1-1.5-2-0.8-1.1-1.7-2.3-2.5-3.4-1.5-2.1-2.9-4.1-4.3-6.2-3.4-5.1-6.6-10.3-9.6-15.7-2.7-4.8-5.2-9.7-7.6-14.7-1.2-2.5-2.3-5-3.4-7.5 1.6 3.7 0.4 1 0.1 0.2-0.8-2-1.6-4.1-2.4-6.1-4.2-11.3-7.6-22.9-10.1-34.7-0.6-3-1.2-5.9-1.7-8.9l-0.9-5.4c-0.1-0.8-0.4-3.9 0-0.1-0.7-6.6-1.4-13.2-1.6-19.8-0.5-12.3-0.1-24.7 1.3-37 0.1-1 0.6-5 0.1-1 0.2-1.2 0.3-2.4 0.5-3.6 0.5-3 1-6 1.6-8.9 1.3-6.5 2.8-13 4.6-19.4 1.6-5.8 3.5-11.6 5.6-17.3 0.9-2.6 1.9-5.1 2.9-7.7 1.4-3.5 0.2-0.4-0.1 0.2l2.7-6c4.7-10.1 10-19.8 16-29.1 3-4.7 6.3-9.3 9.6-13.8 3.2-4.4-1.6 1.9 0.5-0.7l2.7-3.3c2.2-2.7 4.4-5.3 6.7-7.8 7.7-8.6 16-16.7 24.8-24.1l6.6-5.4c-3.6 2.8 0.9-0.6 1.4-1 0.9-0.7 1.8-1.3 2.7-2 5-3.6 10.2-7 15.4-10.2 4.7-2.9 9.6-5.6 14.5-8.1 2.5-1.3 4.9-2.5 7.4-3.7 1-0.5 2-0.9 3-1.4 0.5-0.2 6.1-2.6 3.6-1.6-2.8 1.2 2.1-0.9 2.2-0.9 1.3-0.5 2.5-1 3.8-1.5 2.8-1 5.5-2 8.3-3 6-2 12.2-3.8 18.3-5.4 5.9-1.5 11.8-2.7 17.7-3.7 1.5-0.3 3-0.5 4.5-0.7 1-0.2 5-0.6 1-0.1 3.6-0.4 7.2-0.8 10.8-1.1 12-0.9 24.1-1 36.1-0.1 3 0.2 6 0.5 9 0.8 0.6 0.1 6.5 0.8 1.9 0.2 1.2 0.2 2.4 0.3 3.6 0.5 6.6 1 13.1 2.3 19.5 3.9 11.8 2.9 23.2 6.8 34.5 11.2 3.1 1.2-4.3-1.9 0.5 0.2 1 0.4 2 0.9 3 1.3 2.5 1.1 5 2.3 7.5 3.5 5.5 2.7 10.8 5.6 16 8.7 4.8 2.9 9.5 5.9 14.1 9.1 2.3 1.6 4.6 3.3 6.9 5 3 2.2 0.6 0.4 0 0 1.8 1.4 3.6 2.8 5.3 4.3 8.9 7.4 17.2 15.4 25 23.9 3.8 4.2 7.5 8.6 11 13.1-2.5-3.1-0.1-0.1 0.5 0.7 0.8 1.1 1.7 2.3 2.5 3.4 2 2.7 3.9 5.5 5.7 8.3 6.1 9.3 11.5 19 16.2 29 1.2 2.5 2.3 5 3.4 7.5-1.9-4.4 0.2 0.6 0.5 1.3 0.4 1 0.8 2 1.2 3.1 2.3 6.1 4.4 12.4 6.2 18.7 1.7 5.8 3.2 11.7 4.4 17.6 0.6 3 1.2 5.9 1.7 8.9l0.6 3.6c0.2 1.2 0.4 2.4 0.5 3.6-0.3-2-0.3-2.3-0.1-0.8 1.2 12.3 2 24.5 1.6 37-0.2 6-0.6 12-1.3 18 0-0.1-0.7 5.8-0.3 2.7 0.4-3-0.4 2.8-0.4 2.7-0.6 3.6-1.2 7.1-1.9 10.7-1.9 11.9-5.3 23.5-9.4 35-3.6 9.9 4 22.3 14 24.6 11.3 2.6 20.8-3.4 24.6-14 18.6-51.6 20.3-109.4 4.6-161.9-14.7-49.5-44.4-94.7-84.7-127.1-42.5-34.3-93.8-54.6-148.4-58.3-53-3.6-107.5 10.1-152.7 38.1-43.6 27-79.6 67.2-100.4 114.2-22.6 51.2-28.8 107.8-17.1 162.7 22.1 103.7 110.3 186.4 215.4 201.4 54.9 7.8 110.7-1.2 159.9-26.9 45.4-23.8 83.9-62 108-107.3 6-11.2 11-22.9 15.4-34.9 3.6-9.8-4.1-22.3-14-24.6-11.3-2.6-20.7 3.4-24.6 14z"/>
	<path class="st0" d="m429 369.3c-31.8 11.6-61.6 30.2-87.1 55.7s-44.1 55.3-55.7 87.1l-153.3-153.2c17.6-28.3 38.7-55 63.3-79.5 24.6-24.6 51.3-45.7 79.5-63.3l153.3 153.2z"/>
		<path class="st0" d="m423.7 350c-36 13.3-68.8 33.7-96 60.8-27.2 27.2-47.6 60-60.8 96 11.1-2.9 22.3-5.9 33.4-8.8l-51.7-51.7-82.7-82.7-18.9-18.9c1 8.1 2.1 16.2 3.1 24.2 4.4-7 8.9-13.8 13.6-20.5 2.4-3.4 4.8-6.7 7.3-10 0.4-0.6 4.9-6.4 2.3-3 1.1-1.4 2.2-2.8 3.3-4.2 10.5-13.2 21.8-25.8 33.7-37.7s24.5-23.2 37.7-33.7l4.2-3.3c-3.3 2.6 2.4-1.8 3-2.3 3.3-2.5 6.7-4.9 10-7.3 6.7-4.7 13.6-9.3 20.5-13.6-8.1-1-16.2-2.1-24.2-3.1l51.7 51.7 82.7 82.7 18.9 18.9c7.4 7.4 21 8 28.3 0s7.9-20.4 0-28.3l-51.7-51.7-82.7-82.7-18.9-18.9c-6.1-6.1-16.8-7.8-24.2-3.1-60.6 38-112 89.4-150 150-4.7 7.5-3 18.1 3.1 24.2l51.7 51.7 82.7 82.7 18.9 18.9c5 5 12.6 7 19.5 5.1 7.2-2 11.5-7.3 14-14 0.8-2.1 1.5-4.1 2.3-6.1l1.2-3c-1 2.2-1 2.3-0.1 0.2 1.6-3.5 3.2-7 4.9-10.5 3.7-7.5 7.8-14.7 12.3-21.7 2.4-3.8 4.9-7.5 7.5-11.2 1-1.4 2-2.7 3-4.1 1.4-1.8 1.4-1.8 0 0 0.7-0.9 1.4-1.8 2.1-2.7 5.4-6.7 11.2-13.1 17.3-19.2s12.5-11.9 19.2-17.3l2.7-2.1c-1.8 1.4-1.8 1.4 0 0 1.4-1 2.7-2 4.1-3 3.6-2.6 7.4-5.1 11.2-7.5 7-4.5 14.3-8.6 21.7-12.3 3.5-1.7 7-3.3 10.5-4.9 2.1-0.9 2-0.9-0.2 0.1l3-1.2c2-0.8 4.1-1.6 6.1-2.3 9.8-3.6 17.5-13.7 14-24.6-3.1-9.6-14.1-17.9-24.6-14z"/>
	<path class="st0" d="m890.3 830.5c-17.6 28.3-38.7 55-63.3 79.5-24.6 24.6-51.3 45.7-79.5 63.3l-153.3-153.2c31.8-11.6 61.6-30.2 87.1-55.7s44.1-55.3 55.7-87.1l153.3 153.2z"/>
		<path class="st0" d="m873 820.4c-4.4 7-8.9 13.8-13.6 20.5-2.4 3.4-4.8 6.7-7.3 10-0.4 0.6-4.9 6.4-2.3 3-1.1 1.4-2.2 2.8-3.3 4.2-10.5 13.2-21.8 25.8-33.7 37.7s-24.5 23.2-37.7 33.7l-4.2 3.3c3.3-2.6-2.4 1.8-3 2.3-3.3 2.5-6.7 4.9-10 7.3-6.7 4.7-13.6 9.3-20.5 13.6 8.1 1 16.2 2.1 24.2 3.1l-51.7-51.7-82.7-82.7-18.9-18.9c-2.9 11.1-5.9 22.3-8.8 33.4 36-13.3 68.8-33.7 96-60.8s47.6-60 60.8-96c-11.1 2.9-22.3 5.9-33.4 8.8l51.7 51.7 82.7 82.7 18.9 18.9c7.4 7.4 21 8 28.3 0s7.9-20.4 0-28.3l-51.7-51.7-82.7-82.7-18.9-18.9c-5-5-12.6-7-19.5-5.1-7.2 2-11.5 7.3-14 14-0.8 2.1-1.5 4.1-2.3 6.1l-1.2 3c1-2.2 1-2.3 0.1-0.2-1.6 3.5-3.2 7-4.9 10.5-3.7 7.5-7.8 14.7-12.3 21.7-2.4 3.8-4.9 7.5-7.5 11.2-1 1.4-2 2.7-3 4.1-1.4 1.8-1.4 1.8 0 0-0.7 0.9-1.4 1.8-2.1 2.7-5.4 6.7-11.2 13.1-17.3 19.2s-12.5 11.9-19.2 17.3l-2.7 2.1c1.8-1.4 1.8-1.4 0 0-1.4 1-2.7 2-4.1 3-3.6 2.6-7.4 5.1-11.2 7.5-7 4.5-14.3 8.6-21.7 12.3-3.5 1.7-7 3.3-10.5 4.9-2.1 0.9-2 0.9 0.2-0.1l-3 1.2c-2 0.8-4.1 1.6-6.1 2.3-6.7 2.5-12 6.8-14 14-1.9 6.9 0.1 14.4 5.1 19.5l51.7 51.7 82.7 82.7 18.9 18.9c6.1 6.1 16.8 7.8 24.2 3.1 60.6-38 112-89.4 150-150 5.6-8.9 2.2-22.4-7.2-27.4-9.8-5-21.4-2.1-27.3 7.3z"/>
	<path class="st0" d="m429 820.1l-153.2 153.3c-28.3-17.6-55-38.7-79.5-63.3-24.6-24.6-45.7-51.3-63.3-79.5l153.3-153.3c11.6 31.8 30.2 61.6 55.7 87.1 25.4 25.5 55.2 44.1 87 55.7z"/>
		<path class="st0" d="m414.9 806l-51.7 51.7-82.7 82.7-18.9 18.9c8.1-1 16.2-2.1 24.2-3.1-7-4.4-13.8-8.9-20.5-13.6-3.4-2.4-6.7-4.8-10-7.3-0.6-0.4-6.4-4.9-3-2.3l-4.2-3.3c-13.2-10.5-25.8-21.8-37.7-33.7s-23.2-24.5-33.7-37.7c-1.1-1.4-2.2-2.8-3.3-4.2 2.6 3.3-1.8-2.4-2.3-3-2.5-3.3-4.9-6.7-7.3-10-4.7-6.7-9.3-13.6-13.6-20.5-1 8.1-2.1 16.2-3.1 24.2l51.7-51.7 82.7-82.7 18.9-18.9c-11.1-2.9-22.3-5.9-33.4-8.8 13.3 36 33.7 68.8 60.8 96 27.2 27.2 60 47.6 96 60.8 9.8 3.6 22.3-4.1 24.6-14 2.6-11.3-3.4-20.7-14-24.6-2.1-0.8-4.1-1.5-6.1-2.3l-3-1.2c2.2 1 2.3 1 0.2 0.1-3.5-1.6-7-3.2-10.5-4.9-7.5-3.7-14.7-7.8-21.7-12.3-3.8-2.4-7.5-4.9-11.2-7.5-1.4-1-2.7-2-4.1-3-1.8-1.4-1.8-1.4 0 0l-2.7-2.1c-6.7-5.4-13.1-11.2-19.2-17.3s-11.9-12.5-17.3-19.2c-0.7-0.9-1.4-1.8-2.1-2.7 1.4 1.8 1.4 1.8 0 0-1-1.4-2-2.7-3-4.1-2.6-3.6-5.1-7.4-7.5-11.2-4.5-7-8.6-14.3-12.3-21.7-1.7-3.5-3.3-7-4.9-10.5-0.9-2.1-0.9-2 0.1 0.2l-1.2-3c-0.8-2-1.6-4.1-2.3-6.1-2.5-6.7-6.8-12-14-14-6.9-1.9-14.4 0.1-19.5 5.1l-51.7 51.7-82.7 82.7-18.9 18.9c-6.1 6.1-7.8 16.8-3.1 24.2 38 60.6 89.4 112 150 150 7.5 4.7 18.1 3 24.2-3.1l51.7-51.7 82.7-82.7 18.9-18.9c7.4-7.4 8-21 0-28.3-8-7.4-20.4-7.9-28.3 0z"/>
	<path class="st0" d="m890.3 358.9l-153.3 153.2c-11.6-31.8-30.2-61.6-55.7-87.1s-55.3-44.1-87.1-55.7l153.3-153.3c28.3 17.6 55 38.7 79.5 63.3s45.6 51.3 63.3 79.6z"/>
		<path class="st0" d="m876.1 344.7l-51.7 51.7-82.7 82.7-18.9 18.9c11.1 2.9 22.3 5.9 33.4 8.8-13.3-36-33.7-68.8-60.8-96-27.2-27.2-60-47.6-96-60.8 2.9 11.1 5.9 22.3 8.8 33.4l51.7-51.7 82.7-82.7 18.9-18.9c-8.1 1-16.2 2.1-24.2 3.1 7 4.4 13.8 8.9 20.5 13.6 3.4 2.4 6.7 4.8 10 7.3 0.6 0.4 6.4 4.9 3 2.3l4.2 3.3c13.2 10.5 25.8 21.8 37.7 33.7s23.2 24.5 33.7 37.7c1.1 1.4 2.2 2.8 3.3 4.2-2.6-3.3 1.8 2.4 2.3 3 2.5 3.3 4.9 6.7 7.3 10 4.7 6.7 9.3 13.6 13.6 20.5 5.6 8.9 18.1 13.2 27.4 7.2 8.9-5.7 13.1-17.9 7.2-27.4-38-60.6-89.4-112-150-150-7.5-4.7-18.1-3-24.2 3.1l-51.7 51.7-82.7 82.7-18.9 18.9c-5 5-7 12.6-5.1 19.5 2 7.2 7.3 11.5 14 14 2.1 0.8 4.1 1.5 6.1 2.3l3 1.2c-2.2-1-2.3-1-0.2-0.1 3.5 1.6 7 3.2 10.5 4.9 7.5 3.7 14.7 7.8 21.7 12.3 3.8 2.4 7.5 4.9 11.2 7.5 1.4 1 2.7 2 4.1 3 1.8 1.4 1.8 1.4 0 0l2.7 2.1c6.7 5.4 13.1 11.2 19.2 17.3s11.9 12.5 17.3 19.2c0.7 0.9 1.4 1.8 2.1 2.7-1.4-1.8-1.4-1.8 0 0 1 1.4 2 2.7 3 4.1 2.6 3.6 5.1 7.4 7.5 11.2 4.5 7 8.6 14.3 12.3 21.7 1.7 3.5 3.3 7 4.9 10.5 0.9 2.1 0.9 2-0.1-0.2l1.2 3c0.8 2 1.6 4.1 2.3 6.1 2.5 6.7 6.8 12 14 14 6.9 1.9 14.4-0.1 19.5-5.1l51.7-51.7 82.7-82.7 18.9-18.9c7.4-7.4 8-21 0-28.3-8.1-7.2-20.5-7.8-28.4 0.1z"/>
</svg>
