<?xml version="1.0" encoding="utf-8"?>
<!-- Generator: Adobe Illustrator 23.0.2, SVG Export Plug-In . SVG Version: 6.00 Build 0)  -->
<svg version="1.1" id="Layer_1" xmlns="http://www.w3.org/2000/svg" xmlns:xlink="http://www.w3.org/1999/xlink" x="0px" y="0px"
	 viewBox="0 0 32 40" style="enable-background:new 0 0 32 40;" xml:space="preserve">
<style type="text/css">
	.st0{fill:#4CB6CB;}
</style>
<g>
	<path class="st0" d="M28,5.8L28,5.8c0-0.1-0.1-0.2-0.1-0.2V5.5c0-0.1-0.1-0.1-0.2-0.2c-0.1-0.1-0.1-0.1-0.2-0.1l0,0
		c-0.1,0-0.2-0.1-0.2-0.1c-0.1,0-0.1,0-0.2,0c-0.1,0-0.2,0-0.3,0h-0.1l-13.9,4h-0.1c-0.1,0-0.3,0.1-0.3,0.2l-0.1,0.1
		c-0.1,0-0.1,0.1-0.1,0.2l-0.1,0.1c0,0.1,0,0.1-0.1,0.2c0,0.1,0,0.1,0,0.2v14c-0.8-0.6-1.9-1-3-1c-2.8,0-5,2.2-5,5s2.2,5,5,5
		s5-2.2,5-5V15.9l12-3.4v7.6c-0.8-0.6-1.9-1-3-1c-2.8,0-5,2.2-5,5s2.2,5,5,5s5-2.2,5-5v-18C28,6,28,5.9,28,5.8z M9,31.1
		c-1.7,0-3-1.4-3-3c0-1.7,1.3-3,3-3s3,1.3,3,3C12,29.7,10.7,31.1,9,31.1z M23,27.1c-1.7,0-3-1.4-3-3c0-1.7,1.3-3,3-3s3,1.3,3,3
		C26,25.7,24.7,27.1,23,27.1z M26,10.4l-12,3.4v-2.9l12-3.4V10.4z"/>
</g>
</svg>
