<?xml version="1.0" encoding="utf-8"?>
<!-- Generator: Adobe Illustrator 23.0.2, SVG Export Plug-In . SVG Version: 6.00 Build 0)  -->
<svg version="1.1"
	 id="Layer_1" xmlns:cc="http://creativecommons.org/ns#" xmlns:dc="http://purl.org/dc/elements/1.1/" xmlns:inkscape="http://www.inkscape.org/namespaces/inkscape" xmlns:rdf="http://www.w3.org/1999/02/22-rdf-syntax-ns#" xmlns:sodipodi="http://sodipodi.sourceforge.net/DTD/sodipodi-0.dtd" xmlns:svg="http://www.w3.org/2000/svg"
	 xmlns="http://www.w3.org/2000/svg" xmlns:xlink="http://www.w3.org/1999/xlink" x="0px" y="0px" viewBox="0 0 100 125"
	 style="enable-background:new 0 0 100 125;" xml:space="preserve">
<style type="text/css">
	.st0{fill:#4CB6CB;}
</style>
<g transform="translate(0,-952.36218)">
	<path class="st0" d="M28,968.9c-5.4,0-10,3.9-10,9v78c0,1.2,0.3,2.6,1.4,3.7c1.1,1.1,2.5,1.3,3.6,1.3c0.6,0,1.2-0.2,1.7-0.5
		l25.3-16.9l25.3,16.9c0.5,0.3,1.1,0.5,1.7,0.5c1.1,0,2.4-0.2,3.6-1.3s1.4-2.6,1.4-3.7v-78c0-5.1-4.6-9-10-9H28z M28,974.9h44
		c2.7,0,4,1.5,4,3v75.7l-24.3-16.2c-1-0.7-2.3-0.7-3.3,0L24,1053.6v-75.7C24,976.4,25.3,974.9,28,974.9z"/>
</g>
</svg>
