<?xml version="1.0" encoding="utf-8"?>
<!-- Generator: Adobe Illustrator 23.0.2, SVG Export Plug-In . SVG Version: 6.00 Build 0)  -->
<svg version="1.1" id="Layer_1" xmlns="http://www.w3.org/2000/svg" xmlns:xlink="http://www.w3.org/1999/xlink" x="0px" y="0px"
	 viewBox="0 0 1024 1280" style="enable-background:new 0 0 1024 1280;" xml:space="preserve">
<style type="text/css">
	.st0{fill:#4CB6CB;}
</style>
<g>
	<g>
		<g>
			<path class="st0" d="M850.6,491.4c0,18.4,0,36.8,0,55.3c0,44,0,88,0,132c0,53.1,0,106.2,0,159.3c0,45.7,0,91.4,0,137.1
				c0,21.8,0.2,43.6,0,65.4c0,1.6-0.1,3.2-0.3,4.8c0.5-3.5,1-7.1,1.4-10.6c-0.4,2.2-1,4.3-1.9,6.4c1.3-3.2,2.7-6.4,4-9.6
				c-0.9,2-2,3.8-3.3,5.6c2.1-2.7,4.2-5.4,6.3-8.1c-1.4,1.7-2.9,3.2-4.6,4.6c2.7-2.1,5.4-4.2,8.1-6.3c-1.8,1.3-3.6,2.4-5.6,3.3
				c3.2-1.3,6.4-2.7,9.6-4c-2.1,0.9-4.2,1.5-6.4,1.9c3.5-0.5,7.1-1,10.6-1.4c-7.2,0.9-14.8,0.3-22,0.3c-17,0-34,0-51.1,0
				c-25.2,0-50.5,0-75.7,0c-30.9,0-61.8,0-92.6,0c-34,0-68.1,0-102.1,0c-34.2,0-68.4,0-102.6,0c-31.9,0-63.7,0-95.6,0
				c-27,0-54,0-81,0c-19.2,0-38.4,0-57.6,0c-8.9,0-17.8,0.1-26.7,0c-1.7,0-3.4-0.1-5.1-0.3c3.5,0.5,7.1,1,10.6,1.4
				c-2.2-0.4-4.3-1-6.4-1.9c3.2,1.3,6.4,2.7,9.6,4c-2-0.9-3.8-2-5.6-3.3c2.7,2.1,5.4,4.2,8.1,6.3c-1.7-1.4-3.2-2.9-4.6-4.6
				c2.1,2.7,4.2,5.4,6.3,8.1c-1.3-1.8-2.4-3.6-3.3-5.6c1.3,3.2,2.7,6.4,4,9.6c-0.9-2.1-1.5-4.2-1.9-6.4c0.5,3.5,1,7.1,1.4,10.6
				c-0.8-5.9-0.3-12-0.3-17.9c0-13.2,0-26.3,0-39.5c0-43.8,0-87.6,0-131.4c0-53.1,0-106.1,0-159.2c0-46,0-92,0-138
				c0-22.5,0.4-45,0-67.4c0-0.3,0-0.6,0-1c-6.6,11.5-13.2,23-19.8,34.5c24.3-17.9,48.6-35.9,72.9-53.8
				c16.1-11.8,32.1-23.6,48.2-35.4c30.3-22.3,60.7-44.6,91-67c35.3-26,70.7-52,106-78c19.5-14.4,39.4-28.4,58.7-43.2
				c0.3-0.2,0.6-0.4,0.9-0.6c-13.5,0-26.9,0-40.4,0c16.3,12,32.5,23.9,48.8,35.9c34.7,25.5,69.4,51,104.1,76.6
				c32,23.6,64,47.1,96,70.7c12.5,9.2,25,18.4,37.5,27.6c29.8,22,59.6,44,89.5,66c0.8,0.6,1.7,1.2,2.5,1.9c7.9,5.8,21.8,6.5,30.8,4
				c9.3-2.6,19.3-9.7,23.9-18.4c4.9-9.3,7.4-20.5,4-30.8c-1.3-3.2-2.7-6.4-4-9.6c-3.6-6-8.3-10.8-14.4-14.4
				c-27.5-20.2-55-40.5-82.5-60.8c-13-9.6-25.9-19.1-38.9-28.6c-30.2-22.2-60.4-44.5-90.7-66.7c-35.5-26.1-71-52.2-106.5-78.4
				c-19.6-14.5-39-29.4-59-43.4c-0.3-0.2-0.6-0.4-0.9-0.6c-10.3-7.6-30-7.6-40.4,0c-23.7,17.4-47.3,34.8-71,52.2
				c-44,32.4-88,64.7-131.9,97.1c-24.8,18.3-49.7,36.6-74.5,54.8c-31,22.8-61.9,45.6-92.8,68.4c-2.5,1.8-4.9,3.6-7.4,5.5
				c-8.7,6.5-15.5,13.1-18.4,24c-18.6,67.7-1.3,6.9-1.4,10.7c0,0.2,0,0.3,0,0.5c0,2.4,0,4.8,0,7.2c0,12,0,24,0,36
				c0,44.6,0,89.2,0,133.9c0,55.9,0,111.8,0,167.7c0,47.7,0,95.5,0,143.2c0,20.5-0.5,41.1,0,61.6c0.8,36.6,29.6,65.3,66.2,66.1
				c1.3,0,2.7,0,4,0c8.7,0,17.5,0,26.2,0c36.5,0,73,0,109.5,0c52.5,0,104.9,0,157.4,0c56,0,112,0,167.9,0c48.2,0,96.3,0,144.5,0
				c28.3,0,56.6,0,84.9,0c15.1,0,30-1,43.5-9.5c20-12.6,31.8-33.9,32-57.5c0-2.6,0-5.1,0-7.7c0-32.5,0-64.9,0-97.4
				c0-52.8,0-105.6,0-158.4c0-54,0-108,0-162c0-36.1,0-72.1,0-108.2c0-5.1,0-10.1,0-15.2c0-20.9-18.4-41-40-40
				C868.9,452.4,850.6,469,850.6,491.4z"/>
		</g>
	</g>
	<g>
		<g>
			<path class="st0" d="M870.4,526c21.4,15.8,42.7,31.5,64.1,47.3c3.1,2.3,6.2,4.6,9.3,6.9c7.8,5.8,21.9,6.5,30.8,4
				c9.3-2.6,19.3-9.7,23.9-18.4c4.9-9.3,7.4-20.5,4-30.8c-1.3-3.2-2.7-6.4-4-9.6c-3.6-6-8.3-10.8-14.4-14.4
				c-21.4-15.8-42.7-31.5-64.1-47.3c-3.1-2.3-6.2-4.6-9.3-6.9c-7.8-5.8-21.9-6.5-30.8-4c-9.3,2.6-19.3,9.7-23.9,18.4
				c-4.9,9.3-7.4,20.5-4,30.8c1.3,3.2,2.7,6.4,4,9.6C859.6,517.6,864.4,522.4,870.4,526L870.4,526z"/>
		</g>
	</g>
	<g>
		<g>
			<path class="st0" d="M80.2,580.1c32.2-23.7,64.3-47.4,96.5-71c9.5-7,19.1-14,28.6-21.1c8.7-6.4,15.4-13.1,18.4-23.9
				c2.6-9.6,1.4-22.3-4-30.8c-5.5-8.5-13.7-16.1-23.9-18.4c-9.9-2.2-22.3-2.2-30.8,4c-34,25-68.1,50.1-102.1,75.1
				c-7.7,5.7-15.4,11.3-23,17c-8.7,6.4-15.4,13.1-18.4,23.9c-2.6,9.6-1.4,22.3,4,30.8c5.5,8.5,13.7,16.1,23.9,18.4
				C59.2,586.4,71.7,586.4,80.2,580.1L80.2,580.1z"/>
		</g>
	</g>
	<g>
		<g>
			<path class="st0" d="M592,703.9c0,12,0,24.1,0,36.1c0,28.9,0,57.8,0,86.7c0,35,0,69.9,0,104.9c0,30.3,0,60.5,0,90.8
				c0,14.7-0.3,29.5,0,44.3c0,0.2,0,0.4,0,0.7c13.3-13.3,26.7-26.7,40-40c-26.9,0-53.8,0-80.7,0c-42.9,0-85.8,0-128.7,0
				c-9.9,0-19.8,0-29.6,0c13.3,13.3,26.7,26.7,40,40c0-12.1,0-24.3,0-36.4c0-29.3,0-58.5,0-87.8c0-35.1,0-70.3,0-105.4
				c0-30.2,0-60.4,0-90.5c0-14.3-0.2-28.6,0-42.8c0-1.5,0.1-3,0.3-4.5c-0.5,3.5-1,7.1-1.4,10.6c0.4-2.6,1.1-5.1,2.1-7.6
				c-1.3,3.2-2.7,6.4-4,9.6c1.1-2.4,2.3-4.5,3.9-6.6c-2.1,2.7-4.2,5.4-6.3,8.1c1.6-2,3.4-3.8,5.4-5.4c-2.7,2.1-5.4,4.2-8.1,6.3
				c2.1-1.5,4.3-2.8,6.6-3.9c-3.2,1.3-6.4,2.7-9.6,4c2.5-1,4.9-1.7,7.6-2.1c-3.5,0.5-7.1,1-10.6,1.4c6.8-0.8,13.8-0.3,20.6-0.3
				c14.4,0,28.7,0,43.1,0c32.9,0,65.7,0,98.6,0c8.3,0,16.9-0.7,25.1,0.3c-3.5-0.5-7.1-1-10.6-1.4c2.6,0.4,5.1,1.1,7.6,2.1
				c-3.2-1.3-6.4-2.7-9.6-4c2.4,1.1,4.5,2.3,6.6,3.9c-2.7-2.1-5.4-4.2-8.1-6.3c2,1.6,3.8,3.4,5.4,5.4c-2.1-2.7-4.2-5.4-6.3-8.1
				c1.5,2.1,2.8,4.3,3.9,6.6c-1.3-3.2-2.7-6.4-4-9.6c1,2.5,1.7,4.9,2.1,7.6c-0.5-3.5-1-7.1-1.4-10.6
				C591.9,701.2,592,702.5,592,703.9c0.2,10.4,4.3,20.9,11.7,28.3c6.9,6.9,18.3,12.2,28.3,11.7c21.3-1,40.5-17.6,40-40
				c-0.9-38.6-31.3-69.1-69.9-69.9c-4.6-0.1-9.3,0-13.9,0c-25.1,0-50.1,0-75.2,0c-25.1,0-50.2,0-75.4,0c-4.9,0-9.8-0.1-14.7,0
				c-17.8,0.3-33.1,6.6-46.7,17.9c-14.6,12.2-21.9,30.7-23.2,49.2c-0.6,8.9-0.1,18-0.1,26.9c0,21,0,42,0,63c0,56.1,0,112.3,0,168.4
				c0,35.4-0.3,70.8,0,106.1c0,0.5,0,1.1,0,1.6c0,21.6,18.3,40,40,40c26.9,0,53.8,0,80.7,0c42.9,0,85.8,0,128.7,0
				c9.9,0,19.8,0,29.6,0c21.6,0,40-18.3,40-40c0-12,0-24.1,0-36.1c0-28.9,0-57.8,0-86.7c0-35,0-69.9,0-104.9c0-30.3,0-60.5,0-90.8
				c0-14.8,0.3-29.5,0-44.3c0-0.2,0-0.4,0-0.7c0-20.9-18.4-41-40-40C610.4,664.9,592,681.5,592,703.9z"/>
		</g>
	</g>
</g>
</svg>
