<?xml version="1.0" encoding="utf-8"?>
<!-- Generator: Adobe Illustrator 23.0.2, SVG Export Plug-In . SVG Version: 6.00 Build 0)  -->
<svg version="1.1" id="Layer_1" xmlns="http://www.w3.org/2000/svg" xmlns:xlink="http://www.w3.org/1999/xlink" x="0px" y="0px"
	 viewBox="0 0 100 125" style="enable-background:new 0 0 100 125;" xml:space="preserve">
<style type="text/css">
	.st0{fill-rule:evenodd;clip-rule:evenodd;fill:#4CB6CB;}
</style>
<title>Video</title>
<desc>Created with Sketch.</desc>
<g>
	<path class="st0" d="M73.4,32.4L73.4,32.4H26.6c-8.4,0-15.1,6.8-15.1,15.2v29.8c0,8.4,6.8,15.2,15.1,15.2h46.9
		c8.4,0,15.1-6.8,15.1-15.2V47.6C88.6,39.2,81.8,32.4,73.4,32.4z M73.4,26L73.4,26C85.3,26,95,35.7,95,47.6v29.8
		C95,89.3,85.3,99,73.4,99H26.6C14.7,99,5,89.3,5,77.4V47.6C5,35.7,14.7,26,26.6,26H73.4z M43.4,52.4v21.2L60.6,63L43.4,52.4z
		 M43.4,46L43.4,46c1.2,0,2.4,0.3,3.4,1L64,57.6c1.9,1.2,3,3.2,3,5.4c0,2.2-1.1,4.2-3,5.4L46.8,79c-2,1.2-4.5,1.3-6.5,0.2
		S37,76,37,73.6V52.4C37,48.9,39.9,46,43.4,46z"/>
</g>
</svg>
