<?xml version="1.0" encoding="utf-8"?>
<!-- Generator: Adobe Illustrator 23.0.2, SVG Export Plug-In . SVG Version: 6.00 Build 0)  -->
<svg version="1.1" id="Layer_1" xmlns="http://www.w3.org/2000/svg" xmlns:xlink="http://www.w3.org/1999/xlink" x="0px" y="0px"
	 viewBox="0 0 100 125" style="enable-background:new 0 0 100 125;" xml:space="preserve">
<style type="text/css">
	.st0{display:none;}
	.st1{display:inline;}
	.st2{fill:#4CB6CB;}
</style>
<g>
	<g class="st0">
		<g class="st1">
			<g>
				<path d="M25.3,6.5V21H95V6.5H25.3z"/>
			</g>
		</g>
		<rect x="51.5" y="26.8" class="st1" width="43.5" height="8.7"/>
		<rect x="51.5" y="41.3" class="st1" width="43.5" height="8.7"/>
		<rect x="51.5" y="55.8" class="st1" width="43.5" height="8.7"/>
		<rect x="51.5" y="70.3" class="st1" width="43.5" height="8.7"/>
		<rect x="51.5" y="84.8" class="st1" width="43.5" height="8.7"/>
		<path class="st1" d="M5,26.8v66.8h40.6V26.8H5z M36.9,50l-11.6,2.9v20.3c0,3.2-3.2,5.8-7.3,5.8s-7.3-2.6-7.3-5.8
			c0-3.2,3.2-5.8,7.3-5.8c1.6,0,3.1,0.5,4.4,1.2V44.2l14.5-2.9C36.9,41.3,36.9,50,36.9,50z"/>
		<circle class="st1" cx="12.3" cy="13.7" r="7.3"/>
	</g>
</g>
<g>
	<path class="st2" d="M8.9,38.4v61.2c0,2.3,1.9,4.1,4.1,4.1h74c2.3,0,4.1-1.9,4.1-4.1V38.4c0-2.3-1.9-4.1-4.1-4.1H13
		C10.7,34.3,8.9,36.1,8.9,38.4z M81.9,98.5H18.1c-2.3,0-4.1-1.9-4.1-4.1V43.5c0-2.3,1.9-4.1,4.1-4.1h63.7c2.3,0,4.1,1.9,4.1,4.1
		v50.9C86,96.7,84.1,98.5,81.9,98.5z"/>
	<path class="st2" d="M17.9,24h64.2c0.7,0,1.3,0.6,1.3,1.3v2.5c0,0.7-0.6,1.3-1.3,1.3H17.9c-0.7,0-1.3-0.6-1.3-1.3v-2.5
		C16.6,24.6,17.2,24,17.9,24z"/>
	<path class="st2" d="M25.6,13.7h48.8c0.7,0,1.3,0.6,1.3,1.3v2.5c0,0.7-0.6,1.3-1.3,1.3H25.6c-0.7,0-1.3-0.6-1.3-1.3V15
		C24.3,14.3,24.9,13.7,25.6,13.7z"/>
</g>
<g>
	<path class="st2" d="M63.7,50.1L63.7,50.1c0-0.1-0.1-0.3-0.1-0.3v-0.1c0-0.1-0.1-0.1-0.3-0.3s-0.1-0.1-0.3-0.1l0,0
		c-0.1,0-0.3-0.1-0.3-0.1c-0.1,0-0.1,0-0.3,0s-0.3,0-0.4,0H62l-18.2,5.2h-0.1c-0.1,0-0.4,0.1-0.4,0.3l-0.1,0.1
		c-0.1,0-0.1,0.1-0.1,0.3l-0.1,0.1c0,0.1,0,0.1-0.1,0.3c0,0.1,0,0.1,0,0.3V74c-1-0.8-2.5-1.3-3.9-1.3c-3.7,0-6.5,2.9-6.5,6.5
		c0,3.7,2.9,6.5,6.5,6.5c3.7,0,6.5-2.9,6.5-6.5v-16l15.7-4.4v9.9c-1-0.8-2.5-1.3-3.9-1.3c-3.7,0-6.5,2.9-6.5,6.5
		c0,3.7,2.9,6.5,6.5,6.5c3.7,0,6.5-2.9,6.5-6.5V50.5C63.7,50.4,63.7,50.2,63.7,50.1z M38.9,83.2c-2.2,0-3.9-1.8-3.9-3.9
		c0-2.2,1.7-3.9,3.9-3.9c2.2,0,3.9,1.7,3.9,3.9C42.8,81.4,41.1,83.2,38.9,83.2z M57.2,78c-2.2,0-3.9-1.8-3.9-3.9
		c0-2.2,1.7-3.9,3.9-3.9s3.9,1.7,3.9,3.9C61.1,76.1,59.4,78,57.2,78z M61.1,56.1l-15.7,4.4v-3.8l15.7-4.4V56.1z"/>
</g>
</svg>
