<?xml version="1.0" encoding="utf-8"?>
<!-- Generator: Adobe Illustrator 23.0.2, SVG Export Plug-In . SVG Version: 6.00 Build 0)  -->
<svg version="1.1" id="Layer_1" xmlns="http://www.w3.org/2000/svg" xmlns:xlink="http://www.w3.org/1999/xlink" x="0px" y="0px"
	 viewBox="0 0 64 57.2" style="enable-background:new 0 0 64 57.2;" xml:space="preserve">
<style type="text/css">
	.st0{fill:#5E5E5E;}
</style>
<g>
	<path class="st0" d="M22.2,11l-8.9,7.7H3.8c-2.1,0-3.8,1.7-3.8,3.8v13.8c0,2.1,1.7,3.8,3.8,3.8h9.5l8.9,7.7
		c2.5,2.1,6.3,0.4,6.3-2.9v-31C28.5,10.6,24.6,8.8,22.2,11z"/>
	<path class="st0" d="M49.9,3.2c-1.2-0.7-2.7-0.4-3.5,0.8c-0.7,1.2-0.4,2.7,0.8,3.5C54.6,12.1,59,20.2,59,28.9
		c0,8.9-4.5,16.9-12,21.6c-1.2,0.7-1.5,2.3-0.8,3.4c0.5,0.8,1.3,1.2,2.1,1.2c0.5,0,0.9-0.1,1.3-0.4c9-5.6,14.4-15.3,14.4-25.9
		C64,18.4,58.8,8.8,49.9,3.2z"/>
	<path class="st0" d="M53.9,28.9c0-7.1-3.8-13.8-9.9-17.4c-1.2-0.7-2.7-0.3-3.4,0.9s-0.3,2.7,0.9,3.4c4.7,2.8,7.5,7.7,7.5,13.1
		s-2.9,10.5-7.7,13.3c-1.2,0.7-1.6,2.2-0.9,3.4c0.5,0.8,1.3,1.3,2.2,1.3c0.4,0,0.9-0.1,1.2-0.3C50,42.9,53.9,36.1,53.9,28.9z"/>
	<path class="st0" d="M43.2,28.9c0-3.8-2.2-7.2-5.7-8.8c-1.3-0.6-2.7,0-3.3,1.3s0,2.7,1.3,3.3c1.7,0.7,2.7,2.4,2.7,4.2
		c0,1.9-1.1,3.6-2.9,4.3c-1.3,0.5-1.9,2-1.4,3.2c0.4,1,1.3,1.6,2.3,1.6c0.3,0,0.6-0.1,0.9-0.2C40.8,36.4,43.2,32.9,43.2,28.9z"/>
</g>
</svg>
