<svg xmlns="http://www.w3.org/2000/svg" viewBox="1501.9 551.5 21.399 21.345"><defs><style>.a{fill:#384055;stroke:#384055;}</style></defs><g transform="translate(1490 539.6)"><path class="a" d="M22.6,12.4A10.172,10.172,0,1,0,32.8,22.6,10.24,10.24,0,0,0,22.6,12.4Zm0,1a9.22,9.22,0,0,1,6.1,2.333l-3.255,3.2a4.622,4.622,0,0,0-5.751.054l-3.228-3.255A9.207,9.207,0,0,1,22.6,13.4Zm3.635,9.141A3.608,3.608,0,1,1,22.6,18.91,3.653,3.653,0,0,1,26.234,22.545Zm-12.8.054a9.127,9.127,0,0,1,2.36-6.13l3.228,3.255A4.384,4.384,0,0,0,17.988,22.6a4.625,4.625,0,0,0,1,2.875L15.737,28.7A9.25,9.25,0,0,1,13.431,22.6ZM22.6,31.768a9.038,9.038,0,0,1-6.158-2.387L19.7,26.153a4.441,4.441,0,0,0,2.9,1.058,4.492,4.492,0,0,0,2.875-1.031L28.7,29.462A9.093,9.093,0,0,1,22.6,31.768Zm6.836-3.038-3.228-3.282a4.492,4.492,0,0,0,1.031-2.875,4.585,4.585,0,0,0-1.031-2.93l3.255-3.2a9.127,9.127,0,0,1,2.36,6.13A9.3,9.3,0,0,1,29.435,28.73Z" transform="translate(0 0)"/></g></svg>