<svg xmlns="http://www.w3.org/2000/svg" viewBox="1501.514 399.837 18.888 18.899"><defs><style>.a{fill:#384055;stroke:#384055;}</style></defs><g transform="translate(1401 95.337)"><path class="a" d="M9.774,20.265a.358.358,0,0,0,.274.426A8.949,8.949,0,0,0,18.285,5.62,8.885,8.885,0,0,0,11.96,3h0A8.947,8.947,0,0,0,4.922,17.472l-1.478-.295a.358.358,0,0,0-.14.7l2.506.5a.363.363,0,0,0,.07.007.358.358,0,0,0,.2-.06.347.347,0,0,0,.039-.039c.006-.005.014-.007.02-.013s.008-.014.013-.02a.406.406,0,0,0,.073-.138c0-.007.006-.012.008-.019l.5-2.5a.358.358,0,0,0-.7-.14L5.67,17.251A8.229,8.229,0,0,1,11.959,3.716h0A8.233,8.233,0,1,1,10.2,19.992.356.356,0,0,0,9.774,20.265Z" transform="translate(98 302)"/><path class="a" d="M27.359,11.119a.358.358,0,0,0-.358.358v5.684a.358.358,0,0,0,.24.338l3.691,1.287a.358.358,0,0,0,.236-.676l-3.451-1.2v-5.43A.358.358,0,0,0,27.359,11.119Z" transform="translate(82.6 296.787)"/></g></svg>